;TYPE=PLATED
;Layer: PTH_Through
;EasyEDA Pro v2.2.45.4, 2025-12-29 16:20:18
;Gerber Generator version 0.3
M48
METRIC,LZ,0000.00000
;Hole size 1 = 0.30500 METRIC
T01C0.30500
;Hole size 2 = 0.91440 METRIC
T02C0.91440
;Hole size 3 = 1.01600 METRIC
T03C1.01600
;Hole size 4 = 1.10002 METRIC
T04C1.10002
%
G05
G90
T01
X-19.177Y-30.861
X-6.35Y-33.909
X-1.397Y-32.131
X-9.87116Y-9.906
T02
X-2.286Y-16.891
X-2.286Y-20.447
T03
X-27.813Y-7.366
X-27.813Y-9.906
X-27.813Y-12.446
X-27.813Y-14.986
X-27.813Y-17.526
X-27.813Y-20.066
X-27.813Y-22.606
X-27.813Y-25.146
X-27.813Y-27.686
X-27.813Y-30.226
X-27.813Y-32.766
X-27.813Y-35.306
X-12.573Y-35.306
X-12.573Y-32.766
X-12.573Y-30.226
X-12.573Y-27.686
X-12.573Y-25.146
X-12.573Y-22.606
X-12.573Y-20.066
X-12.573Y-17.526
X-12.573Y-14.986
X-12.573Y-12.446
X-12.573Y-9.906
X-12.573Y-7.366
T04
X-19.05Y-40.894
X-16.51Y-40.894
X-13.97Y-40.894
X-11.43Y-40.894
M30