G04 Layer: TopSolderMaskLayer*
G04 EasyEDA Pro v2.2.45.4, 2025-12-29 16:20:18*
G04 Gerber Generator version 0.3*
G04 Scale: 100 percent, Rotated: No, Reflected: No*
G04 Dimensions in millimeters*
G04 Leading zeros omitted, absolute positions, 4 integers and 5 decimals*
G04 Generated by one-click*
%FSLAX45Y45*%
%MOMM*%
%AMRoundRect*1,1,$1,$2,$3*1,1,$1,$4,$5*1,1,$1,0-$2,0-$3*1,1,$1,0-$4,0-$5*20,1,$1,$2,$3,$4,$5,0*20,1,$1,$4,$5,0-$2,0-$3,0*20,1,$1,0-$2,0-$3,0-$4,0-$5,0*20,1,$1,0-$4,0-$5,$2,$3,0*4,1,4,$2,$3,$4,$5,0-$2,0-$3,0-$4,0-$5,$2,$3,0*%
%ADD10C,1.6256*%
%ADD11RoundRect,0.09424X-0.60368X-1.75367X-0.60368X1.75367*%
%ADD12C,1.8016*%
%ADD13RoundRect,0.09017X-0.35571X-0.63072X-0.35571X0.63072*%
%ADD14RoundRect,0.09017X-0.63072X0.35571X0.63072X0.35571*%
%ADD15RoundRect,0.09428X-0.85416X-0.60742X-0.85416X0.60742*%
%ADD16C,1.9860*%
%ADD17C,1.9812*%
G75*


G04 Pad Start*
G54D10*
G01X-228600Y-1689100D03*
G01X-228600Y-2044700D03*
G54D11*
G01X-546100Y-418795D03*
G01X-546100Y-952805D03*
G54D12*
G01X-1905000Y-4089400D03*
G01X-1651000Y-4089400D03*
G01X-1397000Y-4089400D03*
G01X-1143000Y-4089400D03*
G54D13*
G01X-247904Y-2986100D03*
G01X-437896Y-2986100D03*
G01X-342900Y-3186100D03*
G01X-247904Y-3379800D03*
G01X-437896Y-3379800D03*
G01X-342900Y-3579800D03*
G54D14*
G01X-1979600Y-2749804D03*
G01X-1979600Y-2939796D03*
G01X-1779600Y-2844800D03*
G54D15*
G01X-558800Y-2417521D03*
G01X-558800Y-2713279D03*
G01X-889000Y-3386379D03*
G01X-889000Y-3090621D03*
G01X-1993900Y-2138121D03*
G01X-1993900Y-2433879D03*
G01X-2324100Y-3005379D03*
G01X-2324100Y-2709621D03*
G01X-1651000Y-2433879D03*
G01X-1651000Y-2138121D03*
G54D17*
G01X-2781300Y-736600D03*
G01X-2781300Y-990600D03*
G01X-2781300Y-1244600D03*
G01X-2781300Y-1498600D03*
G01X-2781300Y-1752600D03*
G01X-2781300Y-2006600D03*
G01X-2781300Y-2260600D03*
G01X-2781300Y-2514600D03*
G01X-2781300Y-2768600D03*
G01X-2781300Y-3022600D03*
G01X-2781300Y-3276600D03*
G01X-2781300Y-3530600D03*
G01X-1257300Y-3530600D03*
G01X-1257300Y-3276600D03*
G01X-1257300Y-3022600D03*
G01X-1257300Y-2768600D03*
G01X-1257300Y-2514600D03*
G01X-1257300Y-2260600D03*
G01X-1257300Y-2006600D03*
G01X-1257300Y-1752600D03*
G01X-1257300Y-1498600D03*
G01X-1257300Y-1244600D03*
G01X-1257300Y-990600D03*
G01X-1257300Y-736600D03*
G04 Pad End*

M02*

