G04 Layer: BottomLayer*
G04 EasyEDA Pro v2.2.45.4, 2025-12-29 16:20:18*
G04 Gerber Generator version 0.3*
G04 Scale: 100 percent, Rotated: No, Reflected: No*
G04 Dimensions in millimeters*
G04 Leading zeros omitted, absolute positions, 4 integers and 5 decimals*
G04 Generated by one-click*
%FSLAX45Y45*%
%MOMM*%
%ADD10C,0.2032*%
%ADD11C,0.254*%
%ADD12C,1.524*%
%ADD13C,1.7*%
%ADD14C,1.8796*%
%ADD15C,0.61*%
%ADD16C,0.6434*%
%ADD17C,0.635*%
G75*


G04 Copper Start*
G36*
G01X-73914Y-457200D02*
G01X-73914Y-3204748D01*
G01X-77163Y-3191039D01*
G01X-83235Y-3178325D01*
G01X-91856Y-3167181D01*
G01X-102637Y-3158110D01*
G01X-115090Y-3151521D01*
G01X-128655Y-3147712D01*
G01X-142718Y-3146855D01*
G01X-156645Y-3148987D01*
G01X-169806Y-3154014D01*
G01X-181609Y-3161708D01*
G01X-191521Y-3171721D01*
G01X-199093Y-3183603D01*
G01X-203984Y-3196816D01*
G01X-205973Y-3210764D01*
G01X-337595Y-3342386D01*
G01X-589790Y-3342386D01*
G01X-602161Y-3333288D01*
G01X-616294Y-3327279D01*
G01X-631429Y-3324682D01*
G01X-646756Y-3325636D01*
G01X-661453Y-3330090D01*
G01X-674731Y-3337806D01*
G01X-685878Y-3348368D01*
G01X-694297Y-3361211D01*
G01X-699536Y-3375647D01*
G01X-701314Y-3390900D01*
G01X-699536Y-3406153D01*
G01X-694297Y-3420589D01*
G01X-685878Y-3433432D01*
G01X-674731Y-3443994D01*
G01X-661453Y-3451710D01*
G01X-646756Y-3456164D01*
G01X-631429Y-3457118D01*
G01X-616294Y-3454521D01*
G01X-602161Y-3448512D01*
G01X-589790Y-3439414D01*
G01X-317500Y-3439414D01*
G01X-304944Y-3437761D01*
G01X-293243Y-3432914D01*
G01X-283195Y-3425205D01*
G01X-137364Y-3279373D01*
G01X-122004Y-3277010D01*
G01X-107617Y-3271137D01*
G01X-94991Y-3262076D01*
G01X-84821Y-3250327D01*
G01X-77664Y-3236533D01*
G01X-73914Y-3221452D01*
G01X-73914Y-4000500D01*
G01X-75875Y-4032923D01*
G01X-81730Y-4064873D01*
G01X-91394Y-4095884D01*
G01X-104725Y-4125504D01*
G01X-121529Y-4153301D01*
G01X-141561Y-4178871D01*
G01X-164529Y-4201839D01*
G01X-190099Y-4221871D01*
G01X-217896Y-4238675D01*
G01X-247516Y-4252006D01*
G01X-278527Y-4261670D01*
G01X-310477Y-4267525D01*
G01X-342900Y-4269486D01*
G01X-2705100Y-4269486D01*
G01X-2737523Y-4267525D01*
G01X-2769473Y-4261670D01*
G01X-2800484Y-4252006D01*
G01X-2830104Y-4238675D01*
G01X-2857901Y-4221871D01*
G01X-2883471Y-4201839D01*
G01X-2906439Y-4178871D01*
G01X-2926471Y-4153301D01*
G01X-2943275Y-4125504D01*
G01X-2956606Y-4095884D01*
G01X-2958627Y-4089400D01*
G01X-2025814Y-4089400D01*
G01X-2023978Y-4110379D01*
G01X-2018528Y-4130721D01*
G01X-2009628Y-4149807D01*
G01X-1997549Y-4167058D01*
G01X-1982658Y-4181949D01*
G01X-1965407Y-4194028D01*
G01X-1946321Y-4202928D01*
G01X-1925979Y-4208378D01*
G01X-1905000Y-4210214D01*
G01X-1884021Y-4208378D01*
G01X-1863679Y-4202928D01*
G01X-1844593Y-4194028D01*
G01X-1827342Y-4181949D01*
G01X-1812451Y-4167058D01*
G01X-1800372Y-4149807D01*
G01X-1791472Y-4130721D01*
G01X-1786022Y-4110379D01*
G01X-1784186Y-4089400D01*
G01X-1771814Y-4089400D01*
G01X-1769978Y-4110379D01*
G01X-1764528Y-4130721D01*
G01X-1755628Y-4149807D01*
G01X-1743549Y-4167058D01*
G01X-1728658Y-4181949D01*
G01X-1711407Y-4194028D01*
G01X-1692321Y-4202928D01*
G01X-1671979Y-4208378D01*
G01X-1651000Y-4210214D01*
G01X-1630021Y-4208378D01*
G01X-1609679Y-4202928D01*
G01X-1590593Y-4194028D01*
G01X-1573342Y-4181949D01*
G01X-1558451Y-4167058D01*
G01X-1546372Y-4149807D01*
G01X-1537472Y-4130721D01*
G01X-1532022Y-4110379D01*
G01X-1530186Y-4089400D01*
G01X-1517814Y-4089400D01*
G01X-1515978Y-4110379D01*
G01X-1510528Y-4130721D01*
G01X-1501628Y-4149807D01*
G01X-1489549Y-4167058D01*
G01X-1474658Y-4181949D01*
G01X-1457407Y-4194028D01*
G01X-1438321Y-4202928D01*
G01X-1417979Y-4208378D01*
G01X-1397000Y-4210214D01*
G01X-1376021Y-4208378D01*
G01X-1355679Y-4202928D01*
G01X-1336593Y-4194028D01*
G01X-1319342Y-4181949D01*
G01X-1304451Y-4167058D01*
G01X-1292372Y-4149807D01*
G01X-1283472Y-4130721D01*
G01X-1278022Y-4110379D01*
G01X-1276186Y-4089400D01*
G01X-1278022Y-4068421D01*
G01X-1283472Y-4048079D01*
G01X-1292372Y-4028993D01*
G01X-1304451Y-4011742D01*
G01X-1319342Y-3996851D01*
G01X-1336593Y-3984772D01*
G01X-1355679Y-3975872D01*
G01X-1376021Y-3970422D01*
G01X-1397000Y-3968586D01*
G01X-1417979Y-3970422D01*
G01X-1438321Y-3975872D01*
G01X-1457407Y-3984772D01*
G01X-1474658Y-3996851D01*
G01X-1489549Y-4011742D01*
G01X-1501628Y-4028993D01*
G01X-1510528Y-4048079D01*
G01X-1515978Y-4068421D01*
G01X-1517814Y-4089400D01*
G01X-1517814Y-4089400D01*
G01X-1530186Y-4089400D01*
G01X-1532022Y-4068421D01*
G01X-1537472Y-4048079D01*
G01X-1546372Y-4028993D01*
G01X-1558451Y-4011742D01*
G01X-1573342Y-3996851D01*
G01X-1590593Y-3984772D01*
G01X-1609679Y-3975872D01*
G01X-1630021Y-3970422D01*
G01X-1651000Y-3968586D01*
G01X-1671979Y-3970422D01*
G01X-1692321Y-3975872D01*
G01X-1711407Y-3984772D01*
G01X-1728658Y-3996851D01*
G01X-1743549Y-4011742D01*
G01X-1755628Y-4028993D01*
G01X-1764528Y-4048079D01*
G01X-1769978Y-4068421D01*
G01X-1771814Y-4089400D01*
G01X-1771814Y-4089400D01*
G01X-1784186Y-4089400D01*
G01X-1786022Y-4068421D01*
G01X-1791472Y-4048079D01*
G01X-1800372Y-4028993D01*
G01X-1812451Y-4011742D01*
G01X-1827342Y-3996851D01*
G01X-1844593Y-3984772D01*
G01X-1863679Y-3975872D01*
G01X-1884021Y-3970422D01*
G01X-1905000Y-3968586D01*
G01X-1925979Y-3970422D01*
G01X-1946321Y-3975872D01*
G01X-1965407Y-3984772D01*
G01X-1982658Y-3996851D01*
G01X-1997549Y-4011742D01*
G01X-2009628Y-4028993D01*
G01X-2018528Y-4048079D01*
G01X-2023978Y-4068421D01*
G01X-2025814Y-4089400D01*
G01X-2025814Y-4089400D01*
G01X-2958627Y-4089400D01*
G01X-2966270Y-4064873D01*
G01X-2972125Y-4032923D01*
G01X-2974086Y-4000500D01*
G01X-2974086Y-990600D01*
G01X-2911094Y-990600D01*
G01X-2909215Y-1012606D01*
G01X-2903632Y-1033974D01*
G01X-2894507Y-1054087D01*
G01X-2882105Y-1072361D01*
G01X-2866783Y-1088268D01*
G01X-2848987Y-1101348D01*
G01X-2829230Y-1111220D01*
G01X-2808086Y-1117600D01*
G01X-2829230Y-1123980D01*
G01X-2848987Y-1133852D01*
G01X-2866783Y-1146932D01*
G01X-2882105Y-1162839D01*
G01X-2894507Y-1181113D01*
G01X-2903632Y-1201226D01*
G01X-2909215Y-1222594D01*
G01X-2911094Y-1244600D01*
G01X-2909215Y-1266606D01*
G01X-2903632Y-1287974D01*
G01X-2894507Y-1308087D01*
G01X-2882105Y-1326361D01*
G01X-2866783Y-1342268D01*
G01X-2848987Y-1355348D01*
G01X-2829230Y-1365220D01*
G01X-2808086Y-1371600D01*
G01X-2829230Y-1377980D01*
G01X-2848987Y-1387852D01*
G01X-2866783Y-1400932D01*
G01X-2882105Y-1416839D01*
G01X-2894507Y-1435113D01*
G01X-2903632Y-1455226D01*
G01X-2909215Y-1476594D01*
G01X-2911094Y-1498600D01*
G01X-2909215Y-1520606D01*
G01X-2903632Y-1541974D01*
G01X-2894507Y-1562087D01*
G01X-2882105Y-1580361D01*
G01X-2866783Y-1596268D01*
G01X-2848987Y-1609348D01*
G01X-2829230Y-1619220D01*
G01X-2808086Y-1625600D01*
G01X-2829230Y-1631980D01*
G01X-2848987Y-1641852D01*
G01X-2866783Y-1654932D01*
G01X-2882105Y-1670839D01*
G01X-2894507Y-1689113D01*
G01X-2903632Y-1709226D01*
G01X-2909215Y-1730594D01*
G01X-2911094Y-1752600D01*
G01X-2909215Y-1774606D01*
G01X-2903632Y-1795974D01*
G01X-2894507Y-1816087D01*
G01X-2882105Y-1834361D01*
G01X-2866783Y-1850268D01*
G01X-2848987Y-1863348D01*
G01X-2829230Y-1873220D01*
G01X-2808086Y-1879600D01*
G01X-2829230Y-1885980D01*
G01X-2848987Y-1895852D01*
G01X-2866783Y-1908932D01*
G01X-2882105Y-1924839D01*
G01X-2894507Y-1943113D01*
G01X-2903632Y-1963226D01*
G01X-2909215Y-1984594D01*
G01X-2911094Y-2006600D01*
G01X-2909215Y-2028606D01*
G01X-2903632Y-2049974D01*
G01X-2894507Y-2070087D01*
G01X-2882105Y-2088361D01*
G01X-2866783Y-2104268D01*
G01X-2848987Y-2117348D01*
G01X-2829230Y-2127220D01*
G01X-2808086Y-2133600D01*
G01X-2829230Y-2139980D01*
G01X-2848987Y-2149852D01*
G01X-2866783Y-2162932D01*
G01X-2882105Y-2178839D01*
G01X-2894507Y-2197113D01*
G01X-2903632Y-2217226D01*
G01X-2909215Y-2238594D01*
G01X-2911094Y-2260600D01*
G01X-2909215Y-2282606D01*
G01X-2903632Y-2303974D01*
G01X-2894507Y-2324087D01*
G01X-2882105Y-2342361D01*
G01X-2866783Y-2358268D01*
G01X-2848987Y-2371348D01*
G01X-2829230Y-2381220D01*
G01X-2808086Y-2387600D01*
G01X-2829230Y-2393980D01*
G01X-2848987Y-2403852D01*
G01X-2866783Y-2416932D01*
G01X-2882105Y-2432839D01*
G01X-2894507Y-2451113D01*
G01X-2903632Y-2471226D01*
G01X-2909215Y-2492594D01*
G01X-2911094Y-2514600D01*
G01X-2909215Y-2536606D01*
G01X-2903632Y-2557974D01*
G01X-2894507Y-2578087D01*
G01X-2882105Y-2596361D01*
G01X-2866783Y-2612268D01*
G01X-2848987Y-2625348D01*
G01X-2829230Y-2635220D01*
G01X-2808086Y-2641600D01*
G01X-2829230Y-2647980D01*
G01X-2848987Y-2657852D01*
G01X-2866783Y-2670932D01*
G01X-2882105Y-2686839D01*
G01X-2894507Y-2705113D01*
G01X-2903632Y-2725226D01*
G01X-2909215Y-2746594D01*
G01X-2911094Y-2768600D01*
G01X-2909215Y-2790606D01*
G01X-2903632Y-2811974D01*
G01X-2894507Y-2832087D01*
G01X-2882105Y-2850361D01*
G01X-2866783Y-2866268D01*
G01X-2848987Y-2879348D01*
G01X-2829230Y-2889220D01*
G01X-2808086Y-2895600D01*
G01X-2829230Y-2901980D01*
G01X-2848987Y-2911852D01*
G01X-2866783Y-2924932D01*
G01X-2882105Y-2940839D01*
G01X-2894507Y-2959113D01*
G01X-2903632Y-2979226D01*
G01X-2909215Y-3000594D01*
G01X-2911094Y-3022600D01*
G01X-2909215Y-3044606D01*
G01X-2903632Y-3065974D01*
G01X-2894507Y-3086087D01*
G01X-2882105Y-3104361D01*
G01X-2866783Y-3120268D01*
G01X-2848987Y-3133348D01*
G01X-2829230Y-3143220D01*
G01X-2808086Y-3149600D01*
G01X-2829230Y-3155980D01*
G01X-2848987Y-3165852D01*
G01X-2866783Y-3178932D01*
G01X-2882105Y-3194839D01*
G01X-2894507Y-3213113D01*
G01X-2903632Y-3233226D01*
G01X-2909215Y-3254594D01*
G01X-2911094Y-3276600D01*
G01X-2909215Y-3298606D01*
G01X-2903632Y-3319974D01*
G01X-2894507Y-3340087D01*
G01X-2882105Y-3358361D01*
G01X-2866783Y-3374268D01*
G01X-2848987Y-3387348D01*
G01X-2829230Y-3397220D01*
G01X-2808086Y-3403600D01*
G01X-2829914Y-3410254D01*
G01X-2850239Y-3420628D01*
G01X-2868433Y-3434401D01*
G01X-2883934Y-3451147D01*
G01X-2896263Y-3470350D01*
G01X-2905038Y-3491415D01*
G01X-2909988Y-3513691D01*
G01X-2910960Y-3536490D01*
G01X-2907925Y-3559106D01*
G01X-2900976Y-3580842D01*
G01X-2890327Y-3601024D01*
G01X-2876308Y-3619030D01*
G01X-2859353Y-3634302D01*
G01X-2839985Y-3646369D01*
G01X-2818803Y-3654858D01*
G01X-2796462Y-3659505D01*
G01X-2773652Y-3660168D01*
G01X-2751079Y-3656827D01*
G01X-2729439Y-3649583D01*
G01X-2709403Y-3638662D01*
G01X-2691589Y-3624400D01*
G01X-2676548Y-3607239D01*
G01X-2664745Y-3587709D01*
G01X-2656545Y-3566414D01*
G01X-2179095Y-3566414D01*
G01X-1901205Y-3844305D01*
G01X-1891157Y-3852014D01*
G01X-1879456Y-3856861D01*
G01X-1866900Y-3858514D01*
G01X-1429795Y-3858514D01*
G01X-1384056Y-3904254D01*
G01X-1381392Y-3913872D01*
G01X-1376816Y-3922741D01*
G01X-1370522Y-3930487D01*
G01X-1255543Y-4045467D01*
G01X-1261633Y-4066549D01*
G01X-1263810Y-4088386D01*
G01X-1262000Y-4110256D01*
G01X-1256264Y-4131438D01*
G01X-1246792Y-4151233D01*
G01X-1233895Y-4168987D01*
G01X-1217999Y-4184116D01*
G01X-1199628Y-4196120D01*
G01X-1179389Y-4204603D01*
G01X-1157950Y-4209285D01*
G01X-1136017Y-4210012D01*
G01X-1114315Y-4206759D01*
G01X-1093559Y-4199634D01*
G01X-1074434Y-4188872D01*
G01X-1057572Y-4174828D01*
G01X-1043528Y-4157966D01*
G01X-1032766Y-4138841D01*
G01X-1025641Y-4118085D01*
G01X-1022388Y-4096383D01*
G01X-1023115Y-4074450D01*
G01X-1027797Y-4053011D01*
G01X-1036280Y-4032772D01*
G01X-1048284Y-4014401D01*
G01X-1063413Y-3998505D01*
G01X-1081167Y-3985608D01*
G01X-1100962Y-3976136D01*
G01X-1122144Y-3970400D01*
G01X-1144014Y-3968590D01*
G01X-1165851Y-3970767D01*
G01X-1186933Y-3976857D01*
G01X-1288380Y-3875411D01*
G01X-1291044Y-3865793D01*
G01X-1295619Y-3856923D01*
G01X-1301913Y-3849178D01*
G01X-1375395Y-3775695D01*
G01X-1385443Y-3767986D01*
G01X-1397144Y-3763139D01*
G01X-1409700Y-3761486D01*
G01X-1846805Y-3761486D01*
G01X-2124695Y-3483595D01*
G01X-2134743Y-3475886D01*
G01X-2146444Y-3471039D01*
G01X-2159000Y-3469386D01*
G01X-2666848Y-3469386D01*
G01X-2679202Y-3450459D01*
G01X-2694653Y-3433963D01*
G01X-2712731Y-3420397D01*
G01X-2732889Y-3410172D01*
G01X-2754514Y-3403600D01*
G01X-2733370Y-3397220D01*
G01X-2713613Y-3387348D01*
G01X-2695817Y-3374268D01*
G01X-2680495Y-3358361D01*
G01X-2668093Y-3340087D01*
G01X-2658968Y-3319974D01*
G01X-2653385Y-3298606D01*
G01X-2651506Y-3276600D01*
G01X-2653385Y-3254594D01*
G01X-2658968Y-3233226D01*
G01X-2668093Y-3213113D01*
G01X-2680495Y-3194839D01*
G01X-2695817Y-3178932D01*
G01X-2713613Y-3165852D01*
G01X-2733370Y-3155980D01*
G01X-2754514Y-3149600D01*
G01X-2733370Y-3143220D01*
G01X-2713613Y-3133348D01*
G01X-2695817Y-3120268D01*
G01X-2680495Y-3104361D01*
G01X-2668102Y-3086100D01*
G01X-1984014Y-3086100D01*
G01X-1982236Y-3101353D01*
G01X-1976997Y-3115789D01*
G01X-1968578Y-3128632D01*
G01X-1957431Y-3139194D01*
G01X-1944153Y-3146910D01*
G01X-1929456Y-3151364D01*
G01X-1914129Y-3152318D01*
G01X-1898994Y-3149721D01*
G01X-1884861Y-3143712D01*
G01X-1872490Y-3134614D01*
G01X-1322869Y-3134614D01*
G01X-1304082Y-3143670D01*
G01X-1284086Y-3149600D01*
G01X-1305230Y-3155980D01*
G01X-1324987Y-3165852D01*
G01X-1342783Y-3178932D01*
G01X-1358105Y-3194839D01*
G01X-1370507Y-3213113D01*
G01X-1379632Y-3233226D01*
G01X-1385215Y-3254594D01*
G01X-1387094Y-3276600D01*
G01X-1385215Y-3298606D01*
G01X-1379632Y-3319974D01*
G01X-1370507Y-3340087D01*
G01X-1358105Y-3358361D01*
G01X-1342783Y-3374268D01*
G01X-1324987Y-3387348D01*
G01X-1305230Y-3397220D01*
G01X-1284086Y-3403600D01*
G01X-1305496Y-3410086D01*
G01X-1325474Y-3420152D01*
G01X-1343428Y-3433499D01*
G01X-1358822Y-3449731D01*
G01X-1371201Y-3468366D01*
G01X-1380195Y-3488849D01*
G01X-1385539Y-3510572D01*
G01X-1387074Y-3532890D01*
G01X-1384753Y-3555141D01*
G01X-1378646Y-3576662D01*
G01X-1368934Y-3596815D01*
G01X-1355905Y-3615001D01*
G01X-1339948Y-3630679D01*
G01X-1321535Y-3643385D01*
G01X-1301214Y-3652740D01*
G01X-1279588Y-3658466D01*
G01X-1257300Y-3660394D01*
G01X-1235012Y-3658466D01*
G01X-1213386Y-3652740D01*
G01X-1193065Y-3643385D01*
G01X-1174652Y-3630679D01*
G01X-1158695Y-3615001D01*
G01X-1145666Y-3596815D01*
G01X-1135954Y-3576662D01*
G01X-1129847Y-3555141D01*
G01X-1127526Y-3532890D01*
G01X-1129061Y-3510572D01*
G01X-1134405Y-3488849D01*
G01X-1143399Y-3468366D01*
G01X-1155778Y-3449731D01*
G01X-1171172Y-3433499D01*
G01X-1189126Y-3420152D01*
G01X-1209104Y-3410086D01*
G01X-1230514Y-3403600D01*
G01X-1209370Y-3397220D01*
G01X-1189613Y-3387348D01*
G01X-1171817Y-3374268D01*
G01X-1156495Y-3358361D01*
G01X-1144093Y-3340087D01*
G01X-1134968Y-3319974D01*
G01X-1129385Y-3298606D01*
G01X-1127506Y-3276600D01*
G01X-1129385Y-3254594D01*
G01X-1134968Y-3233226D01*
G01X-1144093Y-3213113D01*
G01X-1156495Y-3194839D01*
G01X-1171817Y-3178932D01*
G01X-1189613Y-3165852D01*
G01X-1209370Y-3155980D01*
G01X-1230514Y-3149600D01*
G01X-1209370Y-3143220D01*
G01X-1189613Y-3133348D01*
G01X-1171817Y-3120268D01*
G01X-1156495Y-3104361D01*
G01X-1144093Y-3086087D01*
G01X-1134968Y-3065974D01*
G01X-1129385Y-3044606D01*
G01X-1127506Y-3022600D01*
G01X-1129385Y-3000594D01*
G01X-1134968Y-2979226D01*
G01X-1144093Y-2959113D01*
G01X-1156495Y-2940839D01*
G01X-1171817Y-2924932D01*
G01X-1189613Y-2911852D01*
G01X-1209370Y-2901980D01*
G01X-1230514Y-2895600D01*
G01X-1209370Y-2889220D01*
G01X-1189613Y-2879348D01*
G01X-1171817Y-2866268D01*
G01X-1156495Y-2850361D01*
G01X-1144093Y-2832087D01*
G01X-1134968Y-2811974D01*
G01X-1129385Y-2790606D01*
G01X-1127506Y-2768600D01*
G01X-1129385Y-2746594D01*
G01X-1134968Y-2725226D01*
G01X-1144093Y-2705113D01*
G01X-1156495Y-2686839D01*
G01X-1171817Y-2670932D01*
G01X-1189613Y-2657852D01*
G01X-1209370Y-2647980D01*
G01X-1230514Y-2641600D01*
G01X-1209370Y-2635220D01*
G01X-1189613Y-2625348D01*
G01X-1171817Y-2612268D01*
G01X-1156495Y-2596361D01*
G01X-1144093Y-2578087D01*
G01X-1134968Y-2557974D01*
G01X-1129385Y-2536606D01*
G01X-1127506Y-2514600D01*
G01X-1129385Y-2492594D01*
G01X-1134968Y-2471226D01*
G01X-1144093Y-2451113D01*
G01X-1156495Y-2432839D01*
G01X-1171817Y-2416932D01*
G01X-1189613Y-2403852D01*
G01X-1209370Y-2393980D01*
G01X-1230514Y-2387600D01*
G01X-1209370Y-2381220D01*
G01X-1189613Y-2371348D01*
G01X-1171817Y-2358268D01*
G01X-1156495Y-2342361D01*
G01X-1144093Y-2324087D01*
G01X-1134968Y-2303974D01*
G01X-1129385Y-2282606D01*
G01X-1127506Y-2260600D01*
G01X-1129385Y-2238594D01*
G01X-1134968Y-2217226D01*
G01X-1144093Y-2197113D01*
G01X-1156495Y-2178839D01*
G01X-1171817Y-2162932D01*
G01X-1189613Y-2149852D01*
G01X-1209370Y-2139980D01*
G01X-1230514Y-2133600D01*
G01X-1230514Y-2133600D01*
G01X-1209370Y-2127220D01*
G01X-1189613Y-2117348D01*
G01X-1171817Y-2104268D01*
G01X-1156495Y-2088361D01*
G01X-1144093Y-2070087D01*
G01X-1134968Y-2049974D01*
G01X-1133590Y-2044700D01*
G01X-340614Y-2044700D01*
G01X-338707Y-2065283D01*
G01X-333050Y-2085164D01*
G01X-323836Y-2103668D01*
G01X-311379Y-2120163D01*
G01X-296104Y-2134089D01*
G01X-278529Y-2144971D01*
G01X-259254Y-2152438D01*
G01X-238935Y-2156236D01*
G01X-218265Y-2156236D01*
G01X-197946Y-2152438D01*
G01X-178671Y-2144971D01*
G01X-161096Y-2134089D01*
G01X-145821Y-2120163D01*
G01X-133364Y-2103668D01*
G01X-124150Y-2085164D01*
G01X-118493Y-2065283D01*
G01X-116586Y-2044700D01*
G01X-118493Y-2024117D01*
G01X-124150Y-2004236D01*
G01X-133364Y-1985732D01*
G01X-145821Y-1969237D01*
G01X-161096Y-1955311D01*
G01X-178671Y-1944429D01*
G01X-197946Y-1936962D01*
G01X-218265Y-1933164D01*
G01X-238935Y-1933164D01*
G01X-259254Y-1936962D01*
G01X-278529Y-1944429D01*
G01X-296104Y-1955311D01*
G01X-311379Y-1969237D01*
G01X-323836Y-1985732D01*
G01X-333050Y-2004236D01*
G01X-338707Y-2024117D01*
G01X-340614Y-2044700D01*
G01X-340614Y-2044700D01*
G01X-1133590Y-2044700D01*
G01X-1129385Y-2028606D01*
G01X-1127506Y-2006600D01*
G01X-1129385Y-1984594D01*
G01X-1134968Y-1963226D01*
G01X-1144093Y-1943113D01*
G01X-1156495Y-1924839D01*
G01X-1171817Y-1908932D01*
G01X-1189613Y-1895852D01*
G01X-1209370Y-1885980D01*
G01X-1230514Y-1879600D01*
G01X-1209370Y-1873220D01*
G01X-1189613Y-1863348D01*
G01X-1171817Y-1850268D01*
G01X-1156495Y-1834361D01*
G01X-1144093Y-1816087D01*
G01X-1134968Y-1795974D01*
G01X-1129385Y-1774606D01*
G01X-1127506Y-1752600D01*
G01X-1129385Y-1730594D01*
G01X-1134968Y-1709226D01*
G01X-1144093Y-1689113D01*
G01X-1144102Y-1689100D01*
G01X-340614Y-1689100D01*
G01X-338707Y-1709683D01*
G01X-333050Y-1729564D01*
G01X-323836Y-1748068D01*
G01X-311379Y-1764563D01*
G01X-296104Y-1778489D01*
G01X-278529Y-1789371D01*
G01X-259254Y-1796838D01*
G01X-238935Y-1800636D01*
G01X-218265Y-1800636D01*
G01X-197946Y-1796838D01*
G01X-178671Y-1789371D01*
G01X-161096Y-1778489D01*
G01X-145821Y-1764563D01*
G01X-133364Y-1748068D01*
G01X-124150Y-1729564D01*
G01X-118493Y-1709683D01*
G01X-116586Y-1689100D01*
G01X-118493Y-1668517D01*
G01X-124150Y-1648636D01*
G01X-133364Y-1630132D01*
G01X-145821Y-1613637D01*
G01X-161096Y-1599711D01*
G01X-178671Y-1588829D01*
G01X-197946Y-1581362D01*
G01X-218265Y-1577564D01*
G01X-238935Y-1577564D01*
G01X-259254Y-1581362D01*
G01X-278529Y-1588829D01*
G01X-296104Y-1599711D01*
G01X-311379Y-1613637D01*
G01X-323836Y-1630132D01*
G01X-333050Y-1648636D01*
G01X-338707Y-1668517D01*
G01X-340614Y-1689100D01*
G01X-340614Y-1689100D01*
G01X-1144102Y-1689100D01*
G01X-1156495Y-1670839D01*
G01X-1171817Y-1654932D01*
G01X-1189613Y-1641852D01*
G01X-1209370Y-1631980D01*
G01X-1230514Y-1625600D01*
G01X-1209370Y-1619220D01*
G01X-1189613Y-1609348D01*
G01X-1171817Y-1596268D01*
G01X-1156495Y-1580361D01*
G01X-1144093Y-1562087D01*
G01X-1134968Y-1541974D01*
G01X-1129385Y-1520606D01*
G01X-1127506Y-1498600D01*
G01X-1129385Y-1476594D01*
G01X-1134968Y-1455226D01*
G01X-1144093Y-1435113D01*
G01X-1156495Y-1416839D01*
G01X-1171817Y-1400932D01*
G01X-1189613Y-1387852D01*
G01X-1209370Y-1377980D01*
G01X-1230514Y-1371600D01*
G01X-1209370Y-1365220D01*
G01X-1189613Y-1355348D01*
G01X-1171817Y-1342268D01*
G01X-1156495Y-1326361D01*
G01X-1144093Y-1308087D01*
G01X-1134968Y-1287974D01*
G01X-1129385Y-1266606D01*
G01X-1127506Y-1244600D01*
G01X-1129385Y-1222594D01*
G01X-1134968Y-1201226D01*
G01X-1144093Y-1181113D01*
G01X-1156495Y-1162839D01*
G01X-1171817Y-1146932D01*
G01X-1189613Y-1133852D01*
G01X-1209370Y-1123980D01*
G01X-1230514Y-1117600D01*
G01X-1209370Y-1111220D01*
G01X-1189613Y-1101348D01*
G01X-1171817Y-1088268D01*
G01X-1156495Y-1072361D01*
G01X-1144093Y-1054087D01*
G01X-1134968Y-1033974D01*
G01X-1129385Y-1012606D01*
G01X-1127506Y-990600D01*
G01X-1129385Y-968594D01*
G01X-1134968Y-947226D01*
G01X-1144093Y-927113D01*
G01X-1156495Y-908839D01*
G01X-1171817Y-892932D01*
G01X-1189613Y-879852D01*
G01X-1209370Y-869980D01*
G01X-1230514Y-863600D01*
G01X-1209104Y-857114D01*
G01X-1189126Y-847048D01*
G01X-1171172Y-833701D01*
G01X-1155778Y-817469D01*
G01X-1143399Y-798834D01*
G01X-1134405Y-778351D01*
G01X-1129061Y-756628D01*
G01X-1127526Y-734310D01*
G01X-1129847Y-712059D01*
G01X-1135954Y-690538D01*
G01X-1145666Y-670385D01*
G01X-1158695Y-652199D01*
G01X-1174652Y-636521D01*
G01X-1193065Y-623815D01*
G01X-1213386Y-614460D01*
G01X-1235012Y-608734D01*
G01X-1257300Y-606806D01*
G01X-1279588Y-608734D01*
G01X-1301214Y-614460D01*
G01X-1321535Y-623815D01*
G01X-1339948Y-636521D01*
G01X-1355905Y-652199D01*
G01X-1368934Y-670385D01*
G01X-1378646Y-690538D01*
G01X-1384753Y-712059D01*
G01X-1387074Y-734310D01*
G01X-1385539Y-756628D01*
G01X-1380195Y-778351D01*
G01X-1371201Y-798834D01*
G01X-1358822Y-817469D01*
G01X-1343428Y-833701D01*
G01X-1325474Y-847048D01*
G01X-1305496Y-857114D01*
G01X-1284086Y-863600D01*
G01X-1305230Y-869980D01*
G01X-1324987Y-879852D01*
G01X-1342783Y-892932D01*
G01X-1358105Y-908839D01*
G01X-1370507Y-927113D01*
G01X-1379632Y-947226D01*
G01X-1385215Y-968594D01*
G01X-1387094Y-990600D01*
G01X-1385215Y-1012606D01*
G01X-1379632Y-1033974D01*
G01X-1370507Y-1054087D01*
G01X-1358105Y-1072361D01*
G01X-1342783Y-1088268D01*
G01X-1324987Y-1101348D01*
G01X-1305230Y-1111220D01*
G01X-1284086Y-1117600D01*
G01X-1305230Y-1123980D01*
G01X-1324987Y-1133852D01*
G01X-1342783Y-1146932D01*
G01X-1358105Y-1162839D01*
G01X-1370507Y-1181113D01*
G01X-1379632Y-1201226D01*
G01X-1385215Y-1222594D01*
G01X-1387094Y-1244600D01*
G01X-1385215Y-1266606D01*
G01X-1379632Y-1287974D01*
G01X-1370507Y-1308087D01*
G01X-1358105Y-1326361D01*
G01X-1342783Y-1342268D01*
G01X-1324987Y-1355348D01*
G01X-1305230Y-1365220D01*
G01X-1284086Y-1371600D01*
G01X-1305230Y-1377980D01*
G01X-1324987Y-1387852D01*
G01X-1342783Y-1400932D01*
G01X-1358105Y-1416839D01*
G01X-1370507Y-1435113D01*
G01X-1379632Y-1455226D01*
G01X-1385215Y-1476594D01*
G01X-1387094Y-1498600D01*
G01X-1385215Y-1520606D01*
G01X-1379632Y-1541974D01*
G01X-1370507Y-1562087D01*
G01X-1358105Y-1580361D01*
G01X-1342783Y-1596268D01*
G01X-1324987Y-1609348D01*
G01X-1305230Y-1619220D01*
G01X-1284086Y-1625600D01*
G01X-1305230Y-1631980D01*
G01X-1324987Y-1641852D01*
G01X-1342783Y-1654932D01*
G01X-1358105Y-1670839D01*
G01X-1370507Y-1689113D01*
G01X-1379632Y-1709226D01*
G01X-1385215Y-1730594D01*
G01X-1387094Y-1752600D01*
G01X-1385215Y-1774606D01*
G01X-1379632Y-1795974D01*
G01X-1370507Y-1816087D01*
G01X-1358105Y-1834361D01*
G01X-1342783Y-1850268D01*
G01X-1324987Y-1863348D01*
G01X-1305230Y-1873220D01*
G01X-1284086Y-1879600D01*
G01X-1305230Y-1885980D01*
G01X-1324987Y-1895852D01*
G01X-1342783Y-1908932D01*
G01X-1358105Y-1924839D01*
G01X-1370507Y-1943113D01*
G01X-1379632Y-1963226D01*
G01X-1385215Y-1984594D01*
G01X-1387094Y-2006600D01*
G01X-1385215Y-2028606D01*
G01X-1379632Y-2049974D01*
G01X-1370507Y-2070087D01*
G01X-1358105Y-2088361D01*
G01X-1342783Y-2104268D01*
G01X-1324987Y-2117348D01*
G01X-1305230Y-2127220D01*
G01X-1284086Y-2133600D01*
G01X-1305230Y-2139980D01*
G01X-1324987Y-2149852D01*
G01X-1342783Y-2162932D01*
G01X-1358105Y-2178839D01*
G01X-1370507Y-2197113D01*
G01X-1379632Y-2217226D01*
G01X-1385215Y-2238594D01*
G01X-1387094Y-2260600D01*
G01X-1385215Y-2282606D01*
G01X-1379632Y-2303974D01*
G01X-1370507Y-2324087D01*
G01X-1358105Y-2342361D01*
G01X-1342783Y-2358268D01*
G01X-1324987Y-2371348D01*
G01X-1305230Y-2381220D01*
G01X-1284086Y-2387600D01*
G01X-1305230Y-2393980D01*
G01X-1324987Y-2403852D01*
G01X-1342783Y-2416932D01*
G01X-1358105Y-2432839D01*
G01X-1370507Y-2451113D01*
G01X-1379632Y-2471226D01*
G01X-1385215Y-2492594D01*
G01X-1387094Y-2514600D01*
G01X-1385215Y-2536606D01*
G01X-1379632Y-2557974D01*
G01X-1370507Y-2578087D01*
G01X-1358105Y-2596361D01*
G01X-1342783Y-2612268D01*
G01X-1324987Y-2625348D01*
G01X-1305230Y-2635220D01*
G01X-1284086Y-2641600D01*
G01X-1305230Y-2647980D01*
G01X-1324987Y-2657852D01*
G01X-1342783Y-2670932D01*
G01X-1358105Y-2686839D01*
G01X-1370507Y-2705113D01*
G01X-1379632Y-2725226D01*
G01X-1385215Y-2746594D01*
G01X-1387094Y-2768600D01*
G01X-1385215Y-2790606D01*
G01X-1379632Y-2811974D01*
G01X-1370507Y-2832087D01*
G01X-1358105Y-2850361D01*
G01X-1342783Y-2866268D01*
G01X-1324987Y-2879348D01*
G01X-1305230Y-2889220D01*
G01X-1284086Y-2895600D01*
G01X-1304497Y-2901691D01*
G01X-1323637Y-2911039D01*
G01X-1340990Y-2923391D01*
G01X-1356089Y-2938415D01*
G01X-1368528Y-2955706D01*
G01X-1377971Y-2974799D01*
G01X-1384164Y-2995179D01*
G01X-1386941Y-3016298D01*
G01X-1386226Y-3037586D01*
G01X-1872490Y-3037586D01*
G01X-1884861Y-3028488D01*
G01X-1898994Y-3022479D01*
G01X-1914129Y-3019882D01*
G01X-1929456Y-3020836D01*
G01X-1944153Y-3025290D01*
G01X-1957431Y-3033006D01*
G01X-1968578Y-3043568D01*
G01X-1976997Y-3056411D01*
G01X-1982236Y-3070847D01*
G01X-1984014Y-3086100D01*
G01X-2668102Y-3086100D01*
G01X-2668093Y-3086087D01*
G01X-2658968Y-3065974D01*
G01X-2653385Y-3044606D01*
G01X-2651506Y-3022600D01*
G01X-2653385Y-3000594D01*
G01X-2658968Y-2979226D01*
G01X-2668093Y-2959113D01*
G01X-2680495Y-2940839D01*
G01X-2695817Y-2924932D01*
G01X-2713613Y-2911852D01*
G01X-2733370Y-2901980D01*
G01X-2754514Y-2895600D01*
G01X-2733370Y-2889220D01*
G01X-2713613Y-2879348D01*
G01X-2695817Y-2866268D01*
G01X-2680495Y-2850361D01*
G01X-2668093Y-2832087D01*
G01X-2658968Y-2811974D01*
G01X-2653385Y-2790606D01*
G01X-2651506Y-2768600D01*
G01X-2653385Y-2746594D01*
G01X-2658968Y-2725226D01*
G01X-2668093Y-2705113D01*
G01X-2680495Y-2686839D01*
G01X-2695817Y-2670932D01*
G01X-2713613Y-2657852D01*
G01X-2733370Y-2647980D01*
G01X-2754514Y-2641600D01*
G01X-2733370Y-2635220D01*
G01X-2713613Y-2625348D01*
G01X-2695817Y-2612268D01*
G01X-2680495Y-2596361D01*
G01X-2668093Y-2578087D01*
G01X-2658968Y-2557974D01*
G01X-2653385Y-2536606D01*
G01X-2651506Y-2514600D01*
G01X-2653385Y-2492594D01*
G01X-2658968Y-2471226D01*
G01X-2668093Y-2451113D01*
G01X-2680495Y-2432839D01*
G01X-2695817Y-2416932D01*
G01X-2713613Y-2403852D01*
G01X-2733370Y-2393980D01*
G01X-2754514Y-2387600D01*
G01X-2733370Y-2381220D01*
G01X-2713613Y-2371348D01*
G01X-2695817Y-2358268D01*
G01X-2680495Y-2342361D01*
G01X-2668093Y-2324087D01*
G01X-2658968Y-2303974D01*
G01X-2653385Y-2282606D01*
G01X-2651506Y-2260600D01*
G01X-2653385Y-2238594D01*
G01X-2658968Y-2217226D01*
G01X-2668093Y-2197113D01*
G01X-2680495Y-2178839D01*
G01X-2695817Y-2162932D01*
G01X-2713613Y-2149852D01*
G01X-2733370Y-2139980D01*
G01X-2754514Y-2133600D01*
G01X-2754514Y-2133600D01*
G01X-2733370Y-2127220D01*
G01X-2713613Y-2117348D01*
G01X-2695817Y-2104268D01*
G01X-2680495Y-2088361D01*
G01X-2668093Y-2070087D01*
G01X-2658968Y-2049974D01*
G01X-2653385Y-2028606D01*
G01X-2651506Y-2006600D01*
G01X-2653385Y-1984594D01*
G01X-2658968Y-1963226D01*
G01X-2668093Y-1943113D01*
G01X-2680495Y-1924839D01*
G01X-2695817Y-1908932D01*
G01X-2713613Y-1895852D01*
G01X-2733370Y-1885980D01*
G01X-2754514Y-1879600D01*
G01X-2733370Y-1873220D01*
G01X-2713613Y-1863348D01*
G01X-2695817Y-1850268D01*
G01X-2680495Y-1834361D01*
G01X-2668093Y-1816087D01*
G01X-2658968Y-1795974D01*
G01X-2653385Y-1774606D01*
G01X-2651506Y-1752600D01*
G01X-2653385Y-1730594D01*
G01X-2658968Y-1709226D01*
G01X-2668093Y-1689113D01*
G01X-2680495Y-1670839D01*
G01X-2695817Y-1654932D01*
G01X-2713613Y-1641852D01*
G01X-2733370Y-1631980D01*
G01X-2754514Y-1625600D01*
G01X-2733370Y-1619220D01*
G01X-2713613Y-1609348D01*
G01X-2695817Y-1596268D01*
G01X-2680495Y-1580361D01*
G01X-2668093Y-1562087D01*
G01X-2658968Y-1541974D01*
G01X-2653385Y-1520606D01*
G01X-2651506Y-1498600D01*
G01X-2653385Y-1476594D01*
G01X-2658968Y-1455226D01*
G01X-2668093Y-1435113D01*
G01X-2680495Y-1416839D01*
G01X-2695817Y-1400932D01*
G01X-2713613Y-1387852D01*
G01X-2733370Y-1377980D01*
G01X-2754514Y-1371600D01*
G01X-2733370Y-1365220D01*
G01X-2713613Y-1355348D01*
G01X-2695817Y-1342268D01*
G01X-2680495Y-1326361D01*
G01X-2668093Y-1308087D01*
G01X-2658968Y-1287974D01*
G01X-2653385Y-1266606D01*
G01X-2651506Y-1244600D01*
G01X-2653385Y-1222594D01*
G01X-2658968Y-1201226D01*
G01X-2668093Y-1181113D01*
G01X-2680495Y-1162839D01*
G01X-2695817Y-1146932D01*
G01X-2713613Y-1133852D01*
G01X-2733370Y-1123980D01*
G01X-2754514Y-1117600D01*
G01X-2733370Y-1111220D01*
G01X-2713613Y-1101348D01*
G01X-2695817Y-1088268D01*
G01X-2680495Y-1072361D01*
G01X-2668093Y-1054087D01*
G01X-2658968Y-1033974D01*
G01X-2653385Y-1012606D01*
G01X-2651506Y-990600D01*
G01X-2653385Y-968594D01*
G01X-2658968Y-947226D01*
G01X-2668093Y-927113D01*
G01X-2680495Y-908839D01*
G01X-2695817Y-892932D01*
G01X-2713613Y-879852D01*
G01X-2733370Y-869980D01*
G01X-2754514Y-863600D01*
G01X-2733104Y-857114D01*
G01X-2713126Y-847048D01*
G01X-2695172Y-833701D01*
G01X-2679778Y-817469D01*
G01X-2667399Y-798834D01*
G01X-2658405Y-778351D01*
G01X-2653061Y-756628D01*
G01X-2651526Y-734310D01*
G01X-2653847Y-712059D01*
G01X-2659954Y-690538D01*
G01X-2669666Y-670385D01*
G01X-2682695Y-652199D01*
G01X-2698652Y-636521D01*
G01X-2717065Y-623815D01*
G01X-2737386Y-614460D01*
G01X-2759012Y-608734D01*
G01X-2781300Y-606806D01*
G01X-2803588Y-608734D01*
G01X-2825214Y-614460D01*
G01X-2845535Y-623815D01*
G01X-2863948Y-636521D01*
G01X-2879905Y-652199D01*
G01X-2892934Y-670385D01*
G01X-2902646Y-690538D01*
G01X-2908753Y-712059D01*
G01X-2911074Y-734310D01*
G01X-2909539Y-756628D01*
G01X-2904195Y-778351D01*
G01X-2895201Y-798834D01*
G01X-2882822Y-817469D01*
G01X-2867428Y-833701D01*
G01X-2849474Y-847048D01*
G01X-2829496Y-857114D01*
G01X-2808086Y-863600D01*
G01X-2829230Y-869980D01*
G01X-2848987Y-879852D01*
G01X-2866783Y-892932D01*
G01X-2882105Y-908839D01*
G01X-2894507Y-927113D01*
G01X-2903632Y-947226D01*
G01X-2909215Y-968594D01*
G01X-2911094Y-990600D01*
G01X-2974086Y-990600D01*
G01X-2974086Y-457200D01*
G01X-2972125Y-424777D01*
G01X-2966270Y-392827D01*
G01X-2956606Y-361816D01*
G01X-2943275Y-332196D01*
G01X-2926471Y-304399D01*
G01X-2906439Y-278829D01*
G01X-2883471Y-255861D01*
G01X-2857901Y-235829D01*
G01X-2830104Y-219025D01*
G01X-2800484Y-205694D01*
G01X-2769473Y-196030D01*
G01X-2737523Y-190175D01*
G01X-2705100Y-188214D01*
G01X-342900Y-188214D01*
G01X-310477Y-190175D01*
G01X-278527Y-196030D01*
G01X-247516Y-205694D01*
G01X-217896Y-219025D01*
G01X-190099Y-235829D01*
G01X-164529Y-255861D01*
G01X-141561Y-278829D01*
G01X-121529Y-304399D01*
G01X-104725Y-332196D01*
G01X-91394Y-361816D01*
G01X-81730Y-392827D01*
G01X-75875Y-424777D01*
G01X-73914Y-457200D01*
G37*
G54D10*
G01X-73914Y-457200D02*
G01X-73914Y-3204748D01*
G03X-142718Y-3146855I-65786J-8352D01*
G03X-205973Y-3210764I3018J-66245D01*
G01X-337595Y-3342386D01*
G01X-589790Y-3342386D01*
G03X-701314Y-3390900I-45210J-48514D01*
G03X-589790Y-3439414I66314J0D01*
G01X-317500Y-3439414D01*
G03X-283195Y-3425205I0J48514D01*
G01X-137364Y-3279373D01*
G03X-73914Y-3221452I-2336J66273D01*
G01X-73914Y-4000500D01*
G02X-342900Y-4269486I-268986J0D01*
G01X-2705100Y-4269486D01*
G02X-2974086Y-4000500I0J268986D01*
G01X-2974086Y-457200D01*
G02X-2705100Y-188214I268986J0D01*
G01X-342900Y-188214D01*
G02X-73914Y-457200I0J-268986D01*
G01X-2754514Y-2133600D02*
G03X-2754514Y-1879600I-26786J127000D01*
G03X-2754514Y-1625600I-26786J127000D01*
G03X-2754514Y-1371600I-26786J127000D01*
G03X-2754514Y-1117600I-26786J127000D01*
G03X-2754514Y-863600I-26786J127000D01*
G03X-2781300Y-606806I-26786J127000D01*
G03X-2808086Y-863600I0J-129794D01*
G03X-2808086Y-1117600I26786J-127000D01*
G03X-2808086Y-1371600I26786J-127000D01*
G03X-2808086Y-1625600I26786J-127000D01*
G03X-2808086Y-1879600I26786J-127000D01*
G03X-2808086Y-2133600I26786J-127000D01*
G03X-2808086Y-2387600I26786J-127000D01*
G03X-2808086Y-2641600I26786J-127000D01*
G03X-2808086Y-2895600I26786J-127000D01*
G03X-2808086Y-3149600I26786J-127000D01*
G03X-2808086Y-3403600I26786J-127000D01*
G03X-2876308Y-3619030I26786J-127000D01*
G03X-2656545Y-3566414I95008J88430D01*
G01X-2179095Y-3566414D01*
G01X-1901205Y-3844305D01*
G03X-1866900Y-3858514I34305J34305D01*
G01X-1429795Y-3858514D01*
G01X-1384056Y-3904254D01*
G03X-1370522Y-3930487I47838J8071D01*
G01X-1255543Y-4045467D01*
G03X-1057572Y-4174828I112543J-43933D01*
G03X-1186933Y-3976857I-85428J85428D01*
G01X-1288380Y-3875411D01*
G03X-1301913Y-3849178I-47838J-8071D01*
G01X-1375395Y-3775695D01*
G03X-1409700Y-3761486I-34305J-34305D01*
G01X-1846805Y-3761486D01*
G01X-2124695Y-3483595D01*
G03X-2159000Y-3469386I-34305J-34305D01*
G01X-2666848Y-3469386D01*
G03X-2754514Y-3403600I-114452J-61214D01*
G03X-2754514Y-3149600I-26786J127000D01*
G03X-2754514Y-2895600I-26786J127000D01*
G03X-2754514Y-2641600I-26786J127000D01*
G03X-2754514Y-2387600I-26786J127000D01*
G03X-2754514Y-2133600I-26786J127000D01*
G01X-2025814Y-4089400D02*
G03X-1784186Y-4089400I120814J0D01*
G03X-2025814Y-4089400I-120814J0D01*
G01X-1230514Y-2133600D02*
G03X-1230514Y-1879600I-26786J127000D01*
G03X-1230514Y-1625600I-26786J127000D01*
G03X-1230514Y-1371600I-26786J127000D01*
G03X-1230514Y-1117600I-26786J127000D01*
G03X-1230514Y-863600I-26786J127000D01*
G03X-1257300Y-606806I-26786J127000D01*
G03X-1284086Y-863600I0J-129794D01*
G03X-1284086Y-1117600I26786J-127000D01*
G03X-1284086Y-1371600I26786J-127000D01*
G03X-1284086Y-1625600I26786J-127000D01*
G03X-1284086Y-1879600I26786J-127000D01*
G03X-1284086Y-2133600I26786J-127000D01*
G03X-1284086Y-2387600I26786J-127000D01*
G03X-1284086Y-2641600I26786J-127000D01*
G03X-1284086Y-2895600I26786J-127000D01*
G03X-1386226Y-3037586I26786J-127000D01*
G01X-1872490Y-3037586D01*
G03X-1984014Y-3086100I-45210J-48514D01*
G03X-1872490Y-3134614I66314J0D01*
G01X-1322869Y-3134614D01*
G03X-1284086Y-3149600I65569J112014D01*
G03X-1284086Y-3403600I26786J-127000D01*
G03X-1257300Y-3660394I26786J-127000D01*
G03X-1230514Y-3403600I0J129794D01*
G03X-1230514Y-3149600I-26786J127000D01*
G03X-1127506Y-3022600I-26786J127000D01*
G03X-1230514Y-2895600I-129794J0D01*
G03X-1230514Y-2641600I-26786J127000D01*
G03X-1230514Y-2387600I-26786J127000D01*
G03X-1230514Y-2133600I-26786J127000D01*
G01X-1771814Y-4089400D02*
G03X-1530186Y-4089400I120814J0D01*
G03X-1771814Y-4089400I-120814J0D01*
G01X-1517814Y-4089400D02*
G03X-1276186Y-4089400I120814J0D01*
G03X-1517814Y-4089400I-120814J0D01*
G01X-340614Y-2044700D02*
G03X-116586Y-2044700I112014J0D01*
G03X-340614Y-2044700I-112014J0D01*
G01X-340614Y-1689100D02*
G03X-116586Y-1689100I112014J0D01*
G03X-340614Y-1689100I-112014J0D01*
G54D11*
G01X-2875026Y-1244600D02*
G01X-2900934Y-1244600D01*
G01X-2687574Y-1244600D02*
G01X-2661666Y-1244600D01*
G01X-2875026Y-1498600D02*
G01X-2900934Y-1498600D01*
G01X-2687574Y-1498600D02*
G01X-2661666Y-1498600D01*
G01X-1735746Y-4089400D02*
G01X-1761654Y-4089400D01*
G01X-1566254Y-4089400D02*
G01X-1540346Y-4089400D01*
G01X-1651000Y-4004654D02*
G01X-1651000Y-3978746D01*
G01X-1651000Y-4174146D02*
G01X-1651000Y-4200054D01*
G01X-1351026Y-990600D02*
G01X-1376934Y-990600D01*
G01X-1163574Y-990600D02*
G01X-1137666Y-990600D01*
G01X-304546Y-2044700D02*
G01X-330454Y-2044700D01*
G01X-152654Y-2044700D02*
G01X-126746Y-2044700D01*
G01X-228600Y-1968754D02*
G01X-228600Y-1942846D01*
G01X-228600Y-2120646D02*
G01X-228600Y-2146554D01*
G04 Copper End*

G04 Pad Start*
G54D12*
G01X-228600Y-1689100D03*
G01X-228600Y-2044700D03*
G54D13*
G01X-1905000Y-4089400D03*
G01X-1651000Y-4089400D03*
G01X-1397000Y-4089400D03*
G01X-1143000Y-4089400D03*
G54D14*
G01X-2781300Y-736600D03*
G01X-2781300Y-990600D03*
G01X-2781300Y-1244600D03*
G01X-2781300Y-1498600D03*
G01X-2781300Y-1752600D03*
G01X-2781300Y-2006600D03*
G01X-2781300Y-2260600D03*
G01X-2781300Y-2514600D03*
G01X-2781300Y-2768600D03*
G01X-2781300Y-3022600D03*
G01X-2781300Y-3276600D03*
G01X-2781300Y-3530600D03*
G01X-1257300Y-3530600D03*
G01X-1257300Y-3276600D03*
G01X-1257300Y-3022600D03*
G01X-1257300Y-2768600D03*
G01X-1257300Y-2514600D03*
G01X-1257300Y-2260600D03*
G01X-1257300Y-2006600D03*
G01X-1257300Y-1752600D03*
G01X-1257300Y-1498600D03*
G01X-1257300Y-1244600D03*
G01X-1257300Y-990600D03*
G01X-1257300Y-736600D03*
G04 Pad End*

G04 Via Start*
G54D15*
G01X-1917700Y-3086100D03*
G01X-635000Y-3390900D03*
G01X-139700Y-3213100D03*
G01X-987116Y-990600D03*
G04 Via End*

G04 Track Start*
G54D11*
G01X-1917700Y-3086100D02*
G01X-1320800Y-3086100D01*
G01X-1257300Y-3022600D01*
G01X-635000Y-3390900D02*
G01X-317500Y-3390900D01*
G01X-139700Y-3213100D01*
G01X-1409700Y-3810000D02*
G01X-1866900Y-3810000D01*
G01X-2159000Y-3517900D01*
G01X-2768600Y-3517900D01*
G01X-2781300Y-3530600D01*
G01X-1336218Y-3883482D02*
G01X-1409700Y-3810000D01*
G01X-1143000Y-4089400D02*
G01X-1336218Y-3896182D01*
G01X-1336218Y-3883482D01*
G54D17*
G01X-1651000Y-3937000D02*
G01X-1651000Y-4089400D01*
G04 Track End*

M02*

