G04 Layer: TopSilkscreenLayer*
G04 EasyEDA Pro v2.2.45.4, 2025-12-29 16:20:18*
G04 Gerber Generator version 0.3*
G04 Scale: 100 percent, Rotated: No, Reflected: No*
G04 Dimensions in millimeters*
G04 Leading zeros omitted, absolute positions, 4 integers and 5 decimals*
G04 Generated by one-click*
%FSLAX45Y45*%
%MOMM*%
%ADD10C,0.2032*%
%ADD11C,0.1016*%
%ADD12C,0.0762*%
%ADD13C,0.1524*%
%ADD14C,0.254*%
%ADD15C,0.7823*%
G75*


G04 Text Start*
G54D10*
G01X-499110Y-1648121D02*
G01X-540258Y-1648121D01*
G01X-544576Y-1685205D01*
G01X-540258Y-1681141D01*
G01X-528066Y-1677077D01*
G01X-515620Y-1677077D01*
G01X-503174Y-1681141D01*
G01X-495046Y-1689523D01*
G01X-490728Y-1701715D01*
G01X-490728Y-1710097D01*
G01X-495046Y-1722543D01*
G01X-503174Y-1730671D01*
G01X-515620Y-1734735D01*
G01X-528066Y-1734735D01*
G01X-540258Y-1730671D01*
G01X-544576Y-1726607D01*
G01X-548640Y-1718225D01*
G01X-450596Y-1648121D02*
G01X-417576Y-1734735D01*
G01X-384556Y-1648121D02*
G01X-417576Y-1734735D01*
G01X-575564Y-2028444D02*
G01X-579628Y-2020316D01*
G01X-588010Y-2011934D01*
G01X-596138Y-2007870D01*
G01X-612648Y-2007870D01*
G01X-621030Y-2011934D01*
G01X-629158Y-2020316D01*
G01X-633476Y-2028444D01*
G01X-637540Y-2040890D01*
G01X-637540Y-2061464D01*
G01X-633476Y-2073910D01*
G01X-629158Y-2082292D01*
G01X-621030Y-2090420D01*
G01X-612648Y-2094484D01*
G01X-596138Y-2094484D01*
G01X-588010Y-2090420D01*
G01X-579628Y-2082292D01*
G01X-575564Y-2073910D01*
G01X-575564Y-2061464D01*
G01X-596138Y-2061464D02*
G01X-575564Y-2061464D01*
G01X-535432Y-2007870D02*
G01X-535432Y-2094484D01*
G01X-535432Y-2007870D02*
G01X-477520Y-2094484D01*
G01X-477520Y-2007870D02*
G01X-477520Y-2094484D01*
G01X-437388Y-2007870D02*
G01X-437388Y-2094484D01*
G01X-437388Y-2007870D02*
G01X-408432Y-2007870D01*
G01X-395986Y-2011934D01*
G01X-387858Y-2020316D01*
G01X-383794Y-2028444D01*
G01X-379476Y-2040890D01*
G01X-379476Y-2061464D01*
G01X-383794Y-2073910D01*
G01X-387858Y-2082292D01*
G01X-395986Y-2090420D01*
G01X-408432Y-2094484D01*
G01X-437388Y-2094484D01*
G54D11*
G01X-2865120Y-3841242D02*
G01X-2858516Y-3837940D01*
G01X-2848864Y-3828034D01*
G01X-2848864Y-3896360D01*
G01X-2822956Y-3828034D02*
G01X-2806700Y-3896360D01*
G01X-2790444Y-3828034D02*
G01X-2806700Y-3896360D01*
G01X-2790444Y-3828034D02*
G01X-2774188Y-3896360D01*
G01X-2757932Y-3828034D02*
G01X-2774188Y-3896360D01*
G01X-2732024Y-3828034D02*
G01X-2728976Y-3831336D01*
G01X-2725674Y-3828034D01*
G01X-2728976Y-3824732D01*
G01X-2732024Y-3828034D01*
G01X-2728976Y-3850894D02*
G01X-2728976Y-3896360D01*
G01X-2699766Y-3850894D02*
G01X-2699766Y-3896360D01*
G01X-2699766Y-3870452D02*
G01X-2696718Y-3860546D01*
G01X-2690114Y-3854196D01*
G01X-2683510Y-3850894D01*
G01X-2673858Y-3850894D01*
G01X-2647950Y-3870452D02*
G01X-2609088Y-3870452D01*
G01X-2609088Y-3863848D01*
G01X-2612390Y-3857498D01*
G01X-2615438Y-3854196D01*
G01X-2622042Y-3850894D01*
G01X-2631694Y-3850894D01*
G01X-2638298Y-3854196D01*
G01X-2644902Y-3860546D01*
G01X-2647950Y-3870452D01*
G01X-2647950Y-3876802D01*
G01X-2644902Y-3886708D01*
G01X-2638298Y-3893312D01*
G01X-2631694Y-3896360D01*
G01X-2622042Y-3896360D01*
G01X-2615438Y-3893312D01*
G01X-2609088Y-3886708D01*
G01X-2865120Y-3942334D02*
G01X-2865120Y-4010660D01*
G01X-2865120Y-3942334D02*
G01X-2835910Y-3942334D01*
G01X-2826004Y-3945636D01*
G01X-2822702Y-3948938D01*
G01X-2819654Y-3955542D01*
G01X-2819654Y-3965194D01*
G01X-2822702Y-3971798D01*
G01X-2826004Y-3974846D01*
G01X-2835910Y-3978148D01*
G01X-2865120Y-3978148D01*
G01X-2793746Y-3965194D02*
G01X-2793746Y-4010660D01*
G01X-2793746Y-3984752D02*
G01X-2790698Y-3974846D01*
G01X-2784094Y-3968496D01*
G01X-2777490Y-3965194D01*
G01X-2767838Y-3965194D01*
G01X-2725674Y-3965194D02*
G01X-2732278Y-3968496D01*
G01X-2738882Y-3974846D01*
G01X-2741930Y-3984752D01*
G01X-2741930Y-3991102D01*
G01X-2738882Y-4001008D01*
G01X-2732278Y-4007612D01*
G01X-2725674Y-4010660D01*
G01X-2716022Y-4010660D01*
G01X-2709418Y-4007612D01*
G01X-2703068Y-4001008D01*
G01X-2699766Y-3991102D01*
G01X-2699766Y-3984752D01*
G01X-2703068Y-3974846D01*
G01X-2709418Y-3968496D01*
G01X-2716022Y-3965194D01*
G01X-2725674Y-3965194D01*
G01X-2634996Y-3965194D02*
G01X-2634996Y-4017264D01*
G01X-2638298Y-4026916D01*
G01X-2641346Y-4030218D01*
G01X-2647950Y-4033520D01*
G01X-2657602Y-4033520D01*
G01X-2664206Y-4030218D01*
G01X-2634996Y-3974846D02*
G01X-2641346Y-3968496D01*
G01X-2647950Y-3965194D01*
G01X-2657602Y-3965194D01*
G01X-2664206Y-3968496D01*
G01X-2670810Y-3974846D01*
G01X-2673858Y-3984752D01*
G01X-2673858Y-3991102D01*
G01X-2670810Y-4001008D01*
G01X-2664206Y-4007612D01*
G01X-2657602Y-4010660D01*
G01X-2647950Y-4010660D01*
G01X-2641346Y-4007612D01*
G01X-2634996Y-4001008D01*
G01X-2609088Y-3965194D02*
G01X-2609088Y-4010660D01*
G01X-2609088Y-3984752D02*
G01X-2606040Y-3974846D01*
G01X-2599436Y-3968496D01*
G01X-2592832Y-3965194D01*
G01X-2583180Y-3965194D01*
G01X-2518410Y-3965194D02*
G01X-2518410Y-4010660D01*
G01X-2518410Y-3974846D02*
G01X-2524760Y-3968496D01*
G01X-2531364Y-3965194D01*
G01X-2541016Y-3965194D01*
G01X-2547620Y-3968496D01*
G01X-2554224Y-3974846D01*
G01X-2557272Y-3984752D01*
G01X-2557272Y-3991102D01*
G01X-2554224Y-4001008D01*
G01X-2547620Y-4007612D01*
G01X-2541016Y-4010660D01*
G01X-2531364Y-4010660D01*
G01X-2524760Y-4007612D01*
G01X-2518410Y-4001008D01*
G01X-2492502Y-3965194D02*
G01X-2492502Y-4010660D01*
G01X-2492502Y-3978148D02*
G01X-2482850Y-3968496D01*
G01X-2476246Y-3965194D01*
G01X-2466594Y-3965194D01*
G01X-2459990Y-3968496D01*
G01X-2456942Y-3978148D01*
G01X-2456942Y-4010660D01*
G01X-2456942Y-3978148D02*
G01X-2447036Y-3968496D01*
G01X-2440432Y-3965194D01*
G01X-2430780Y-3965194D01*
G01X-2424176Y-3968496D01*
G01X-2421128Y-3978148D01*
G01X-2421128Y-4010660D01*
G01X-2395220Y-3965194D02*
G01X-2395220Y-4010660D01*
G01X-2395220Y-3978148D02*
G01X-2385568Y-3968496D01*
G01X-2378964Y-3965194D01*
G01X-2369312Y-3965194D01*
G01X-2362708Y-3968496D01*
G01X-2359660Y-3978148D01*
G01X-2359660Y-4010660D01*
G01X-2359660Y-3978148D02*
G01X-2349754Y-3968496D01*
G01X-2343150Y-3965194D01*
G01X-2333498Y-3965194D01*
G01X-2326894Y-3968496D01*
G01X-2323846Y-3978148D01*
G01X-2323846Y-4010660D01*
G01X-2297938Y-3984752D02*
G01X-2259076Y-3984752D01*
G01X-2259076Y-3978148D01*
G01X-2262378Y-3971798D01*
G01X-2265426Y-3968496D01*
G01X-2272030Y-3965194D01*
G01X-2281682Y-3965194D01*
G01X-2288286Y-3968496D01*
G01X-2294890Y-3974846D01*
G01X-2297938Y-3984752D01*
G01X-2297938Y-3991102D01*
G01X-2294890Y-4001008D01*
G01X-2288286Y-4007612D01*
G01X-2281682Y-4010660D01*
G01X-2272030Y-4010660D01*
G01X-2265426Y-4007612D01*
G01X-2259076Y-4001008D01*
G01X-2233168Y-3965194D02*
G01X-2233168Y-4010660D01*
G01X-2233168Y-3984752D02*
G01X-2230120Y-3974846D01*
G01X-2223516Y-3968496D01*
G01X-2216912Y-3965194D01*
G01X-2207260Y-3965194D01*
G54D12*
G01X-1990090Y-3860546D02*
G01X-1972818Y-3905504D01*
G01X-1955800Y-3860546D02*
G01X-1972818Y-3905504D01*
G01X-1925066Y-3860546D02*
G01X-1929384Y-3862578D01*
G01X-1933702Y-3866896D01*
G01X-1935734Y-3871214D01*
G01X-1937766Y-3877564D01*
G01X-1937766Y-3888232D01*
G01X-1935734Y-3894836D01*
G01X-1933702Y-3899154D01*
G01X-1929384Y-3903472D01*
G01X-1925066Y-3905504D01*
G01X-1916430Y-3905504D01*
G01X-1912112Y-3903472D01*
G01X-1907794Y-3899154D01*
G01X-1905762Y-3894836D01*
G01X-1903476Y-3888232D01*
G01X-1903476Y-3877564D01*
G01X-1905762Y-3871214D01*
G01X-1907794Y-3866896D01*
G01X-1912112Y-3862578D01*
G01X-1916430Y-3860546D01*
G01X-1925066Y-3860546D01*
G01X-1885442Y-3860546D02*
G01X-1885442Y-3892550D01*
G01X-1883410Y-3899154D01*
G01X-1879092Y-3903472D01*
G01X-1872742Y-3905504D01*
G01X-1868424Y-3905504D01*
G01X-1862074Y-3903472D01*
G01X-1857756Y-3899154D01*
G01X-1855470Y-3892550D01*
G01X-1855470Y-3860546D01*
G01X-1822450Y-3860546D02*
G01X-1822450Y-3905504D01*
G01X-1837436Y-3860546D02*
G01X-1807464Y-3860546D01*
G01X-1678432Y-3871214D02*
G01X-1680718Y-3866896D01*
G01X-1685036Y-3862578D01*
G01X-1689354Y-3860546D01*
G01X-1697736Y-3860546D01*
G01X-1702054Y-3862578D01*
G01X-1706372Y-3866896D01*
G01X-1708658Y-3871214D01*
G01X-1710690Y-3877564D01*
G01X-1710690Y-3888232D01*
G01X-1708658Y-3894836D01*
G01X-1706372Y-3899154D01*
G01X-1702054Y-3903472D01*
G01X-1697736Y-3905504D01*
G01X-1689354Y-3905504D01*
G01X-1685036Y-3903472D01*
G01X-1680718Y-3899154D01*
G01X-1678432Y-3894836D01*
G01X-1678432Y-3888232D01*
G01X-1689354Y-3888232D02*
G01X-1678432Y-3888232D01*
G01X-1660398Y-3860546D02*
G01X-1660398Y-3905504D01*
G01X-1660398Y-3860546D02*
G01X-1630426Y-3905504D01*
G01X-1630426Y-3860546D02*
G01X-1630426Y-3905504D01*
G01X-1612392Y-3860546D02*
G01X-1612392Y-3905504D01*
G01X-1612392Y-3860546D02*
G01X-1597406Y-3860546D01*
G01X-1591056Y-3862578D01*
G01X-1586738Y-3866896D01*
G01X-1584706Y-3871214D01*
G01X-1582420Y-3877564D01*
G01X-1582420Y-3888232D01*
G01X-1584706Y-3894836D01*
G01X-1586738Y-3899154D01*
G01X-1591056Y-3903472D01*
G01X-1597406Y-3905504D01*
G01X-1612392Y-3905504D01*
G01X-1486627Y-3860546D02*
G01X-1486627Y-3905504D01*
G01X-1486627Y-3860546D02*
G01X-1471641Y-3860546D01*
G01X-1465291Y-3862578D01*
G01X-1460973Y-3866896D01*
G01X-1458687Y-3871214D01*
G01X-1456655Y-3877564D01*
G01X-1456655Y-3888232D01*
G01X-1458687Y-3894836D01*
G01X-1460973Y-3899154D01*
G01X-1465291Y-3903472D01*
G01X-1471641Y-3905504D01*
G01X-1486627Y-3905504D01*
G01X-1421603Y-3860546D02*
G01X-1438621Y-3905504D01*
G01X-1421603Y-3860546D02*
G01X-1404331Y-3905504D01*
G01X-1432271Y-3890518D02*
G01X-1410935Y-3890518D01*
G01X-1371311Y-3860546D02*
G01X-1371311Y-3905504D01*
G01X-1386297Y-3860546D02*
G01X-1356325Y-3860546D01*
G01X-1321273Y-3860546D02*
G01X-1338291Y-3905504D01*
G01X-1321273Y-3860546D02*
G01X-1304001Y-3905504D01*
G01X-1331941Y-3890518D02*
G01X-1310605Y-3890518D01*
G01X-1228090Y-3860546D02*
G01X-1228090Y-3905504D01*
G01X-1228090Y-3860546D02*
G01X-1208786Y-3860546D01*
G01X-1202436Y-3862578D01*
G01X-1200150Y-3864864D01*
G01X-1198118Y-3869182D01*
G01X-1198118Y-3875532D01*
G01X-1200150Y-3879850D01*
G01X-1202436Y-3881882D01*
G01X-1208786Y-3884168D01*
G01X-1228090Y-3884168D01*
G01X-1180084Y-3860546D02*
G01X-1180084Y-3905504D01*
G01X-1180084Y-3860546D02*
G01X-1161034Y-3860546D01*
G01X-1154430Y-3862578D01*
G01X-1152398Y-3864864D01*
G01X-1150112Y-3869182D01*
G01X-1150112Y-3873246D01*
G01X-1152398Y-3877564D01*
G01X-1154430Y-3879850D01*
G01X-1161034Y-3881882D01*
G01X-1180084Y-3881882D01*
G01X-1165098Y-3881882D02*
G01X-1150112Y-3905504D01*
G01X-1119378Y-3860546D02*
G01X-1123696Y-3862578D01*
G01X-1128014Y-3866896D01*
G01X-1130046Y-3871214D01*
G01X-1132078Y-3877564D01*
G01X-1132078Y-3888232D01*
G01X-1130046Y-3894836D01*
G01X-1128014Y-3899154D01*
G01X-1123696Y-3903472D01*
G01X-1119378Y-3905504D01*
G01X-1110742Y-3905504D01*
G01X-1106424Y-3903472D01*
G01X-1102106Y-3899154D01*
G01X-1100074Y-3894836D01*
G01X-1097788Y-3888232D01*
G01X-1097788Y-3877564D01*
G01X-1100074Y-3871214D01*
G01X-1102106Y-3866896D01*
G01X-1106424Y-3862578D01*
G01X-1110742Y-3860546D01*
G01X-1119378Y-3860546D01*
G01X-1047750Y-3871214D02*
G01X-1049782Y-3866896D01*
G01X-1054100Y-3862578D01*
G01X-1058418Y-3860546D01*
G01X-1067054Y-3860546D01*
G01X-1071372Y-3862578D01*
G01X-1075690Y-3866896D01*
G01X-1077722Y-3871214D01*
G01X-1079754Y-3877564D01*
G01X-1079754Y-3888232D01*
G01X-1077722Y-3894836D01*
G01X-1075690Y-3899154D01*
G01X-1071372Y-3903472D01*
G01X-1067054Y-3905504D01*
G01X-1058418Y-3905504D01*
G01X-1054100Y-3903472D01*
G01X-1049782Y-3899154D01*
G01X-1047750Y-3894836D01*
G01X-1047750Y-3888232D01*
G01X-1058418Y-3888232D02*
G01X-1047750Y-3888232D01*
G54D13*
G01X-238760Y-308102D02*
G01X-232410Y-305054D01*
G01X-226314Y-298704D01*
G01X-223266Y-292608D01*
G01X-223266Y-280162D01*
G01X-226314Y-274066D01*
G01X-232410Y-267716D01*
G01X-238760Y-264668D01*
G01X-247904Y-261620D01*
G01X-263398Y-261620D01*
G01X-272796Y-264668D01*
G01X-278892Y-267716D01*
G01X-285242Y-274066D01*
G01X-288290Y-280162D01*
G01X-288290Y-292608D01*
G01X-285242Y-298704D01*
G01X-278892Y-305054D01*
G01X-272796Y-308102D01*
G01X-235712Y-338328D02*
G01X-232410Y-344424D01*
G01X-223266Y-353568D01*
G01X-288290Y-353568D01*
G01X-2189480Y-4084066D02*
G01X-2189480Y-4149090D01*
G01X-2146046Y-4084066D02*
G01X-2146046Y-4149090D01*
G01X-2189480Y-4115054D02*
G01X-2146046Y-4115054D01*
G01X-2115820Y-4096512D02*
G01X-2109724Y-4093210D01*
G01X-2100580Y-4084066D01*
G01X-2100580Y-4149090D01*
G01X-610075Y-3222438D02*
G01X-607027Y-3228534D01*
G01X-600931Y-3234884D01*
G01X-594581Y-3237932D01*
G01X-585437Y-3240980D01*
G01X-569943Y-3240980D01*
G01X-560545Y-3237932D01*
G01X-554449Y-3234884D01*
G01X-548099Y-3228534D01*
G01X-545051Y-3222438D01*
G01X-545051Y-3209992D01*
G01X-548099Y-3203896D01*
G01X-554449Y-3197546D01*
G01X-560545Y-3194498D01*
G01X-569943Y-3191450D01*
G01X-585437Y-3191450D01*
G01X-594581Y-3194498D01*
G01X-600931Y-3197546D01*
G01X-607027Y-3203896D01*
G01X-610075Y-3209992D01*
G01X-610075Y-3222438D01*
G01X-557497Y-3213040D02*
G01X-538955Y-3194498D01*
G01X-597629Y-3161224D02*
G01X-600931Y-3155128D01*
G01X-610075Y-3145984D01*
G01X-545051Y-3145984D01*
G01X-610075Y-3616138D02*
G01X-607027Y-3622234D01*
G01X-600931Y-3628584D01*
G01X-594581Y-3631632D01*
G01X-585437Y-3634680D01*
G01X-569943Y-3634680D01*
G01X-560545Y-3631632D01*
G01X-554449Y-3628584D01*
G01X-548099Y-3622234D01*
G01X-545051Y-3616138D01*
G01X-545051Y-3603692D01*
G01X-548099Y-3597596D01*
G01X-554449Y-3591246D01*
G01X-560545Y-3588198D01*
G01X-569943Y-3585150D01*
G01X-585437Y-3585150D01*
G01X-594581Y-3588198D01*
G01X-600931Y-3591246D01*
G01X-607027Y-3597596D01*
G01X-610075Y-3603692D01*
G01X-610075Y-3616138D01*
G01X-557497Y-3606740D02*
G01X-538955Y-3588198D01*
G01X-594581Y-3551876D02*
G01X-597629Y-3551876D01*
G01X-603979Y-3548828D01*
G01X-607027Y-3545780D01*
G01X-610075Y-3539684D01*
G01X-610075Y-3527238D01*
G01X-607027Y-3520888D01*
G01X-603979Y-3517840D01*
G01X-597629Y-3514792D01*
G01X-591533Y-3514792D01*
G01X-585437Y-3517840D01*
G01X-576039Y-3524190D01*
G01X-545051Y-3554924D01*
G01X-545051Y-3511744D01*
G01X-1743262Y-3111975D02*
G01X-1737166Y-3108927D01*
G01X-1730816Y-3102831D01*
G01X-1727768Y-3096481D01*
G01X-1724720Y-3087337D01*
G01X-1724720Y-3071843D01*
G01X-1727768Y-3062445D01*
G01X-1730816Y-3056349D01*
G01X-1737166Y-3049999D01*
G01X-1743262Y-3046951D01*
G01X-1755708Y-3046951D01*
G01X-1761804Y-3049999D01*
G01X-1768154Y-3056349D01*
G01X-1771202Y-3062445D01*
G01X-1774250Y-3071843D01*
G01X-1774250Y-3087337D01*
G01X-1771202Y-3096481D01*
G01X-1768154Y-3102831D01*
G01X-1761804Y-3108927D01*
G01X-1755708Y-3111975D01*
G01X-1743262Y-3111975D01*
G01X-1752660Y-3059397D02*
G01X-1771202Y-3040855D01*
G01X-1810572Y-3111975D02*
G01X-1844608Y-3111975D01*
G01X-1826066Y-3087337D01*
G01X-1835210Y-3087337D01*
G01X-1841560Y-3084289D01*
G01X-1844608Y-3080987D01*
G01X-1847656Y-3071843D01*
G01X-1847656Y-3065493D01*
G01X-1844608Y-3056349D01*
G01X-1838512Y-3049999D01*
G01X-1829114Y-3046951D01*
G01X-1819716Y-3046951D01*
G01X-1810572Y-3049999D01*
G01X-1807524Y-3053301D01*
G01X-1804476Y-3059397D01*
G01X-767588Y-2684780D02*
G01X-770890Y-2678684D01*
G01X-780034Y-2669286D01*
G01X-715010Y-2669286D01*
G01X-780034Y-2620518D02*
G01X-776986Y-2629916D01*
G01X-767588Y-2636012D01*
G01X-752348Y-2639060D01*
G01X-742950Y-2639060D01*
G01X-727456Y-2636012D01*
G01X-718058Y-2629916D01*
G01X-715010Y-2620518D01*
G01X-715010Y-2614422D01*
G01X-718058Y-2605024D01*
G01X-727456Y-2598928D01*
G01X-742950Y-2595880D01*
G01X-752348Y-2595880D01*
G01X-767588Y-2598928D01*
G01X-776986Y-2605024D01*
G01X-780034Y-2614422D01*
G01X-780034Y-2620518D01*
G01X-780034Y-2565654D02*
G01X-715010Y-2565654D01*
G01X-758444Y-2534920D02*
G01X-727456Y-2565654D01*
G01X-739902Y-2553462D02*
G01X-715010Y-2531618D01*
G01X-715010Y-2501392D02*
G01X-715010Y-2479802D01*
G01X-724408Y-2486152D01*
G01X-733552Y-2492248D01*
G01X-742950Y-2495296D01*
G01X-752348Y-2495296D01*
G01X-761492Y-2492248D01*
G01X-767588Y-2489200D01*
G01X-773938Y-2482850D01*
G01X-776986Y-2476754D01*
G01X-776986Y-2464308D01*
G01X-773938Y-2458212D01*
G01X-767588Y-2451862D01*
G01X-761492Y-2448814D01*
G01X-752348Y-2445766D01*
G01X-742950Y-2445766D01*
G01X-733552Y-2448814D01*
G01X-724408Y-2455164D01*
G01X-715010Y-2461260D01*
G01X-715010Y-2439670D01*
G01X-1085088Y-3370580D02*
G01X-1088390Y-3364484D01*
G01X-1097534Y-3355086D01*
G01X-1032510Y-3355086D01*
G01X-1097534Y-3306318D02*
G01X-1094486Y-3315716D01*
G01X-1085088Y-3321812D01*
G01X-1069848Y-3324860D01*
G01X-1060450Y-3324860D01*
G01X-1044956Y-3321812D01*
G01X-1035558Y-3315716D01*
G01X-1032510Y-3306318D01*
G01X-1032510Y-3300222D01*
G01X-1035558Y-3290824D01*
G01X-1044956Y-3284728D01*
G01X-1060450Y-3281680D01*
G01X-1069848Y-3281680D01*
G01X-1085088Y-3284728D01*
G01X-1094486Y-3290824D01*
G01X-1097534Y-3300222D01*
G01X-1097534Y-3306318D01*
G01X-1097534Y-3232912D02*
G01X-1094486Y-3242310D01*
G01X-1085088Y-3248406D01*
G01X-1069848Y-3251454D01*
G01X-1060450Y-3251454D01*
G01X-1044956Y-3248406D01*
G01X-1035558Y-3242310D01*
G01X-1032510Y-3232912D01*
G01X-1032510Y-3226816D01*
G01X-1035558Y-3217418D01*
G01X-1044956Y-3211322D01*
G01X-1060450Y-3208274D01*
G01X-1069848Y-3208274D01*
G01X-1085088Y-3211322D01*
G01X-1094486Y-3217418D01*
G01X-1097534Y-3226816D01*
G01X-1097534Y-3232912D01*
G01X-1032510Y-3178048D02*
G01X-1032510Y-3156458D01*
G01X-1041908Y-3162808D01*
G01X-1051052Y-3168904D01*
G01X-1060450Y-3171952D01*
G01X-1069848Y-3171952D01*
G01X-1078992Y-3168904D01*
G01X-1085088Y-3165856D01*
G01X-1091438Y-3159506D01*
G01X-1094486Y-3153410D01*
G01X-1094486Y-3140964D01*
G01X-1091438Y-3134868D01*
G01X-1085088Y-3128518D01*
G01X-1078992Y-3125470D01*
G01X-1069848Y-3122422D01*
G01X-1060450Y-3122422D01*
G01X-1051052Y-3125470D01*
G01X-1041908Y-3131820D01*
G01X-1032510Y-3137916D01*
G01X-1032510Y-3116326D01*
G01X-2202688Y-2405380D02*
G01X-2205990Y-2399284D01*
G01X-2215134Y-2389886D01*
G01X-2150110Y-2389886D01*
G01X-2215134Y-2341118D02*
G01X-2212086Y-2350516D01*
G01X-2202688Y-2356612D01*
G01X-2187448Y-2359660D01*
G01X-2178050Y-2359660D01*
G01X-2162556Y-2356612D01*
G01X-2153158Y-2350516D01*
G01X-2150110Y-2341118D01*
G01X-2150110Y-2335022D01*
G01X-2153158Y-2325624D01*
G01X-2162556Y-2319528D01*
G01X-2178050Y-2316480D01*
G01X-2187448Y-2316480D01*
G01X-2202688Y-2319528D01*
G01X-2212086Y-2325624D01*
G01X-2215134Y-2335022D01*
G01X-2215134Y-2341118D01*
G01X-2215134Y-2286254D02*
G01X-2150110Y-2286254D01*
G01X-2193544Y-2255520D02*
G01X-2162556Y-2286254D01*
G01X-2175002Y-2274062D02*
G01X-2150110Y-2252218D01*
G01X-2150110Y-2221992D02*
G01X-2150110Y-2200402D01*
G01X-2159508Y-2206752D01*
G01X-2168652Y-2212848D01*
G01X-2178050Y-2215896D01*
G01X-2187448Y-2215896D01*
G01X-2196592Y-2212848D01*
G01X-2202688Y-2209800D01*
G01X-2209038Y-2203450D01*
G01X-2212086Y-2197354D01*
G01X-2212086Y-2184908D01*
G01X-2209038Y-2178812D01*
G01X-2202688Y-2172462D01*
G01X-2196592Y-2169414D01*
G01X-2187448Y-2166366D01*
G01X-2178050Y-2166366D01*
G01X-2168652Y-2169414D01*
G01X-2159508Y-2175764D01*
G01X-2150110Y-2181860D01*
G01X-2150110Y-2160270D01*
G01X-2520188Y-2989580D02*
G01X-2523490Y-2983484D01*
G01X-2532634Y-2974086D01*
G01X-2467610Y-2974086D01*
G01X-2532634Y-2925318D02*
G01X-2529586Y-2934716D01*
G01X-2520188Y-2940812D01*
G01X-2504948Y-2943860D01*
G01X-2495550Y-2943860D01*
G01X-2480056Y-2940812D01*
G01X-2470658Y-2934716D01*
G01X-2467610Y-2925318D01*
G01X-2467610Y-2919222D01*
G01X-2470658Y-2909824D01*
G01X-2480056Y-2903728D01*
G01X-2495550Y-2900680D01*
G01X-2504948Y-2900680D01*
G01X-2520188Y-2903728D01*
G01X-2529586Y-2909824D01*
G01X-2532634Y-2919222D01*
G01X-2532634Y-2925318D01*
G01X-2532634Y-2851912D02*
G01X-2529586Y-2861310D01*
G01X-2520188Y-2867406D01*
G01X-2504948Y-2870454D01*
G01X-2495550Y-2870454D01*
G01X-2480056Y-2867406D01*
G01X-2470658Y-2861310D01*
G01X-2467610Y-2851912D01*
G01X-2467610Y-2845816D01*
G01X-2470658Y-2836418D01*
G01X-2480056Y-2830322D01*
G01X-2495550Y-2827274D01*
G01X-2504948Y-2827274D01*
G01X-2520188Y-2830322D01*
G01X-2529586Y-2836418D01*
G01X-2532634Y-2845816D01*
G01X-2532634Y-2851912D01*
G01X-2467610Y-2797048D02*
G01X-2467610Y-2775458D01*
G01X-2477008Y-2781808D01*
G01X-2486152Y-2787904D01*
G01X-2495550Y-2790952D01*
G01X-2504948Y-2790952D01*
G01X-2514092Y-2787904D01*
G01X-2520188Y-2784856D01*
G01X-2526538Y-2778506D01*
G01X-2529586Y-2772410D01*
G01X-2529586Y-2759964D01*
G01X-2526538Y-2753868D01*
G01X-2520188Y-2747518D01*
G01X-2514092Y-2744470D01*
G01X-2504948Y-2741422D01*
G01X-2495550Y-2741422D01*
G01X-2486152Y-2744470D01*
G01X-2477008Y-2750820D01*
G01X-2467610Y-2756916D01*
G01X-2467610Y-2735326D01*
G01X-1438910Y-2191004D02*
G01X-1432814Y-2187956D01*
G01X-1429766Y-2178812D01*
G01X-1429766Y-2172462D01*
G01X-1432814Y-2163318D01*
G01X-1442212Y-2156968D01*
G01X-1457452Y-2153920D01*
G01X-1472946Y-2153920D01*
G01X-1485392Y-2156968D01*
G01X-1491742Y-2163318D01*
G01X-1494790Y-2172462D01*
G01X-1494790Y-2175510D01*
G01X-1491742Y-2184908D01*
G01X-1485392Y-2191004D01*
G01X-1476248Y-2194052D01*
G01X-1472946Y-2194052D01*
G01X-1463802Y-2191004D01*
G01X-1457452Y-2184908D01*
G01X-1454404Y-2175510D01*
G01X-1454404Y-2172462D01*
G01X-1457452Y-2163318D01*
G01X-1463802Y-2156968D01*
G01X-1472946Y-2153920D01*
G01X-1429766Y-2239518D02*
G01X-1432814Y-2230374D01*
G01X-1438910Y-2227326D01*
G01X-1445260Y-2227326D01*
G01X-1451356Y-2230374D01*
G01X-1454404Y-2236470D01*
G01X-1457452Y-2248916D01*
G01X-1460754Y-2258314D01*
G01X-1466850Y-2264410D01*
G01X-1472946Y-2267458D01*
G01X-1482344Y-2267458D01*
G01X-1488440Y-2264410D01*
G01X-1491742Y-2261362D01*
G01X-1494790Y-2251964D01*
G01X-1494790Y-2239518D01*
G01X-1491742Y-2230374D01*
G01X-1488440Y-2227326D01*
G01X-1482344Y-2224278D01*
G01X-1472946Y-2224278D01*
G01X-1466850Y-2227326D01*
G01X-1460754Y-2233422D01*
G01X-1457452Y-2242820D01*
G01X-1454404Y-2255012D01*
G01X-1451356Y-2261362D01*
G01X-1445260Y-2264410D01*
G01X-1438910Y-2264410D01*
G01X-1432814Y-2261362D01*
G01X-1429766Y-2251964D01*
G01X-1429766Y-2239518D01*
G01X-1429766Y-2316226D02*
G01X-1432814Y-2306828D01*
G01X-1442212Y-2300732D01*
G01X-1457452Y-2297684D01*
G01X-1466850Y-2297684D01*
G01X-1482344Y-2300732D01*
G01X-1491742Y-2306828D01*
G01X-1494790Y-2316226D01*
G01X-1494790Y-2322322D01*
G01X-1491742Y-2331720D01*
G01X-1482344Y-2337816D01*
G01X-1466850Y-2340864D01*
G01X-1457452Y-2340864D01*
G01X-1442212Y-2337816D01*
G01X-1432814Y-2331720D01*
G01X-1429766Y-2322322D01*
G01X-1429766Y-2316226D01*
G01X-1494790Y-2371090D02*
G01X-1494790Y-2392680D01*
G01X-1485392Y-2386330D01*
G01X-1476248Y-2380234D01*
G01X-1466850Y-2377186D01*
G01X-1457452Y-2377186D01*
G01X-1448308Y-2380234D01*
G01X-1442212Y-2383282D01*
G01X-1435862Y-2389632D01*
G01X-1432814Y-2395728D01*
G01X-1432814Y-2408174D01*
G01X-1435862Y-2414270D01*
G01X-1442212Y-2420620D01*
G01X-1448308Y-2423668D01*
G01X-1457452Y-2426716D01*
G01X-1466850Y-2426716D01*
G01X-1476248Y-2423668D01*
G01X-1485392Y-2417318D01*
G01X-1494790Y-2411222D01*
G01X-1494790Y-2432812D01*
G01X-2049780Y-1734566D02*
G01X-2049780Y-1781048D01*
G01X-2046732Y-1790192D01*
G01X-2040382Y-1796542D01*
G01X-2031238Y-1799590D01*
G01X-2024888Y-1799590D01*
G01X-2015744Y-1796542D01*
G01X-2009648Y-1790192D01*
G01X-2006346Y-1781048D01*
G01X-2006346Y-1734566D01*
G01X-1976120Y-1747012D02*
G01X-1970024Y-1743710D01*
G01X-1960880Y-1734566D01*
G01X-1960880Y-1799590D01*
G04 Text End*

G04 PolygonModel Start*
G01X-620027Y-1021362D02*
G01X-883666Y-1023366D01*
G01X-883666Y-1023366D02*
G01X-883666Y-487680D01*
G01X-883666Y-487680D02*
G01X-744220Y-348234D01*
G01X-744220Y-348234D02*
G01X-614680Y-349570D01*
G01X-475331Y-1022749D02*
G01X-208483Y-1023417D01*
G01X-208483Y-1023417D02*
G01X-208483Y-487797D01*
G01X-208483Y-487797D02*
G01X-348097Y-348183D01*
G01X-348097Y-348183D02*
G01X-477520Y-348183D01*
G36*
G01X-688000Y-996000D02*
G01X-707799Y-996000D01*
G01X-707799Y-916800D01*
G01X-688000Y-916800D01*
G01X-688000Y-996000D01*
G37*
G36*
G01X-688000Y-375600D02*
G01X-707799Y-375600D01*
G01X-707799Y-454800D01*
G01X-688000Y-454800D01*
G01X-688000Y-375600D01*
G37*
G36*
G01X-631901Y-405300D02*
G01X-763900Y-405300D01*
G01X-763900Y-425099D01*
G01X-631901Y-425099D01*
G01X-631901Y-405300D01*
G37*
G54D14*
G01X-1775648Y-3962400D02*
G01X-1016000Y-3962400D01*
G01X-1016000Y-3962400D02*
G01X-1016000Y-4216400D01*
G01X-1016000Y-4216400D02*
G01X-2032000Y-4216400D01*
G01X-2032000Y-4216400D02*
G01X-2032000Y-3962400D01*
G01X-2032000Y-3962400D02*
G01X-1775648Y-3962400D01*
G01X-1775648Y-3962400D02*
G01X-1775648Y-4216400D01*
G54D13*
G01X-495521Y-3013479D02*
G01X-495521Y-3158721D01*
G01X-495521Y-3158721D02*
G01X-392359Y-3158721D01*
G01X-190279Y-3013479D02*
G01X-190279Y-3158721D01*
G01X-190279Y-3158721D02*
G01X-293441Y-3158721D01*
G01X-388440Y-3013479D02*
G01X-297360Y-3013479D01*
G01X-495521Y-3407179D02*
G01X-495521Y-3552421D01*
G01X-495521Y-3552421D02*
G01X-392359Y-3552421D01*
G01X-190279Y-3407179D02*
G01X-190279Y-3552421D01*
G01X-190279Y-3552421D02*
G01X-293441Y-3552421D01*
G01X-388440Y-3407179D02*
G01X-297360Y-3407179D01*
G01X-1952221Y-2997421D02*
G01X-1806979Y-2997421D01*
G01X-1806979Y-2997421D02*
G01X-1806979Y-2894259D01*
G01X-1952221Y-2692179D02*
G01X-1806979Y-2692179D01*
G01X-1806979Y-2692179D02*
G01X-1806979Y-2795341D01*
G01X-1952221Y-2890340D02*
G01X-1952221Y-2799260D01*
G01X-450891Y-2470280D02*
G01X-450891Y-2334288D01*
G01X-450891Y-2334288D02*
G01X-666709Y-2334288D01*
G01X-666709Y-2334288D02*
G01X-666709Y-2470280D01*
G01X-450891Y-2660520D02*
G01X-450891Y-2796512D01*
G01X-450891Y-2796512D02*
G01X-666709Y-2796512D01*
G01X-666709Y-2796512D02*
G01X-666709Y-2660520D01*
G01X-996909Y-3333620D02*
G01X-996909Y-3469612D01*
G01X-996909Y-3469612D02*
G01X-781091Y-3469612D01*
G01X-781091Y-3469612D02*
G01X-781091Y-3333620D01*
G01X-996909Y-3143380D02*
G01X-996909Y-3007388D01*
G01X-996909Y-3007388D02*
G01X-781091Y-3007388D01*
G01X-781091Y-3007388D02*
G01X-781091Y-3143380D01*
G01X-1885991Y-2190880D02*
G01X-1885991Y-2054888D01*
G01X-1885991Y-2054888D02*
G01X-2101809Y-2054888D01*
G01X-2101809Y-2054888D02*
G01X-2101809Y-2190880D01*
G01X-1885991Y-2381120D02*
G01X-1885991Y-2517112D01*
G01X-1885991Y-2517112D02*
G01X-2101809Y-2517112D01*
G01X-2101809Y-2517112D02*
G01X-2101809Y-2381120D01*
G01X-2432009Y-2952620D02*
G01X-2432009Y-3088612D01*
G01X-2432009Y-3088612D02*
G01X-2216191Y-3088612D01*
G01X-2216191Y-3088612D02*
G01X-2216191Y-2952620D01*
G01X-2432009Y-2762380D02*
G01X-2432009Y-2626388D01*
G01X-2432009Y-2626388D02*
G01X-2216191Y-2626388D01*
G01X-2216191Y-2626388D02*
G01X-2216191Y-2762380D01*
G01X-1758909Y-2381120D02*
G01X-1758909Y-2517112D01*
G01X-1758909Y-2517112D02*
G01X-1543091Y-2517112D01*
G01X-1543091Y-2517112D02*
G01X-1543091Y-2381120D01*
G01X-1758909Y-2190880D02*
G01X-1758909Y-2054888D01*
G01X-1758909Y-2054888D02*
G01X-1543091Y-2054888D01*
G01X-1543091Y-2054888D02*
G01X-1543091Y-2190880D01*
G54D14*
G01X-2908300Y-355600D02*
G01X-2908300Y-3657600D01*
G01X-2908300Y-3657600D02*
G01X-1130300Y-3657600D01*
G01X-1130300Y-3657600D02*
G01X-1130300Y-355600D01*
G01X-1130300Y-355600D02*
G01X-2908300Y-355600D01*
G01X-2400300Y-355600D02*
G01X-2400300Y-228600D01*
G01X-2400300Y-228600D02*
G01X-1638300Y-228600D01*
G01X-1638300Y-228600D02*
G01X-1638300Y-355600D01*

M02*

